<?xml version="1.0" encoding="UTF-8"?>
<!-- Generator: Adobe Illustrator 24.2.1, SVG Export Plug-In . SVG Version: 6.00 Build 0)  -->
<svg version="1.1" id="Layer_1" xmlns="http://www.w3.org/2000/svg" xmlns:xlink="http://www.w3.org/1999/xlink" x="0px" y="0px" viewBox="0 0 240 50" style="enable-background:new 0 0 240 50;" xml:space="preserve">
<style type="text/css">
	.st0{fill:#221F20;}
</style>
<g>
	<g>
		<path class="st0" d="M240,37.2c0,0.2-0.1,0.4-0.1,0.6c-0.2,0.7-0.6,1.2-1.2,1.6c-0.8,0.6-1.7,0.9-2.7,1.2    c-1.7,0.4-3.4,0.5-5.2,0.3c-2.5-0.3-4.6-1.4-6.3-3.3c-1.3-1.5-2.2-3.1-2.8-5c-0.5-1.5-0.9-3-1.1-4.6c0-0.3-0.1-0.6-0.1-0.9    c0,0,0,0,0,0c-0.1,0.3-0.2,0.7-0.2,1c-0.2,1.2-0.3,2.4-0.4,3.6c-0.1,1.2-0.1,2.3-0.1,3.5c0,0.2-0.1,0.3-0.3,0.4    c-0.8,0.4-1.7,0.7-2.7,0.6c-1-0.1-1.6-0.7-1.6-1.7c0-0.1,0-0.3,0-0.4c-0.1,0.1-0.1,0.1-0.1,0.1c-0.4,0.5-0.8,1-1.2,1.4    c-1.2,1-2.5,0.6-3.2-0.2c-0.4-0.4-0.6-0.8-0.9-1.3c0,0,0-0.1,0-0.1c-0.4,0.3-0.7,0.6-1.1,0.9c-0.8,0.6-1.8,1.1-2.8,1.2    c-1.1,0.2-2.2,0-3.1-0.8c-0.4-0.4-0.7-0.8-0.9-1.3c-0.1,0-0.1,0.1-0.1,0.1c-1.2,0.8-2.4,1.5-3.8,1.8c-1,0.3-2,0.4-3,0.2    c-0.8-0.1-1.5-0.4-1.9-1.1c-0.4-0.5-0.5-1.1-0.5-1.6c0-0.7,0.1-1.4,0.2-2c0.4-2.3,0.9-4.5,1.4-6.7c0,0,0,0,0-0.1    c-0.1,0-0.1,0-0.2,0.1c-1.1,0.4-2.2,0.8-3.3,1.1c-0.3,0.1-0.5,0.1-0.8,0.1c-0.5,0-0.8-0.2-1.1-0.6c-0.4-0.5-0.7-1-0.9-1.6    c-0.1-0.2-0.1-0.4-0.2-0.6c0-0.2,0-0.2,0.1-0.2c1.1-0.4,2.3-0.8,3.4-1.2c1.2-0.4,2.5-0.9,3.7-1.3c0.1,0,0.1-0.1,0.2-0.2    c0.4-1.7,0.9-3.4,1.3-5.1c0.2-0.8,0.7-1.3,1.2-1.9c0.3-0.3,0.7-0.5,1.1-0.6c0.7-0.2,1.3-0.4,2-0.5c0.1,0,0.2,0,0.3,0    c0.3,0,0.3,0.1,0.3,0.4c-0.2,0.9-0.4,1.7-0.6,2.6c-0.3,1.4-0.6,2.8-1,4.2c0,0,0,0.1,0,0.1c0.1,0,0.2,0,0.2,0    c1.1-0.2,2.3-0.4,3.4-0.6c0.4-0.1,0.9-0.1,1.4,0c0,0,0.1,0,0.1,0c0.6,0.2,0.8,0.7,0.5,1.2c-0.5,0.7-1,1.4-1.6,2.1    c-0.2,0.3-0.5,0.4-0.9,0.5c-1.3,0.3-2.7,0.6-4,0.9c-0.1,0-0.2,0.1-0.2,0.2c-0.5,2.2-1.1,4.3-1.6,6.5c-0.1,0.5-0.2,1.1-0.3,1.6    c-0.1,0.4,0,0.7,0.1,1.1c0.2,0.6,0.7,0.8,1.3,0.6c0.6-0.1,1.1-0.4,1.7-0.7c0.5-0.3,1.1-0.6,1.6-1c0.1,0,0.1-0.1,0.1-0.2    c0.1-1.5,0.4-3,1.1-4.4c1-1.9,2.4-3.4,4.4-4.4c0.8-0.4,1.6-0.6,2.5-0.6c0.4,0,0.8,0.1,1,0.5c0.2,0.3,0.4,0.5,0.8,0.6    c0.2,0,0.4,0,0.6,0c0.3,0,0.6,0,0.8,0c0.4,0,0.6,0.2,0.7,0.6c0.1,0.3,0.1,0.5,0.1,0.8c0,0.7-0.1,1.4-0.3,2.1    c-0.2,1-0.4,2.1-0.6,3.1c-0.2,1-0.2,1.9,0,2.9c0,0.2,0.1,0.3,0.2,0.5c0.1,0.1,0.2,0.2,0.4,0.2c0.4,0,0.6-0.2,0.9-0.4    c0.6-0.5,1.1-1.2,1.5-1.8c0.1-0.2,0.1-0.4,0.1-0.5c0.6-3,1.3-5.9,2-8.8c0.6-2.6,1.3-5.2,1.9-7.8c0.1-0.5,0.2-1.1,0.3-1.6    c0,0,0.1-0.1,0.1-0.1c0.5-0.2,1.1-0.2,1.7-0.2c0.5,0,1,0.1,1.4,0.4c0.6,0.3,0.8,0.9,0.8,1.5c0,0.7-0.1,1.4-0.2,2    c-0.3,1.5-0.8,3-1.3,4.5c-0.3,1-0.6,2.1-1,3.2c-0.1,0.2-0.1,0.4-0.1,0.7c0.2-0.1,0.4-0.2,0.6-0.4c1-0.6,1.8-1.3,2.7-2.1    c1.3-1.2,2.5-2.5,3.7-3.8c0.1-0.1,0.2-0.2,0.4-0.1c0.4,0.1,0.9,0.2,1.3,0.5c0.3,0.2,0.6,0.5,0.7,0.9c0.1,0.4-0.1,0.7-0.3,1    c-0.3,0.4-0.6,0.7-0.9,1.1c-1,1-2,1.9-3.1,2.7c-0.9,0.7-1.8,1.4-2.7,2.1c0,0-0.1,0.1-0.1,0.2c0.3,2.3,0.9,4.4,1.7,6.5    c0.6,1.3,1.2,2.5,2.2,3.6c1,1.1,2.1,1.9,3.5,2.3c0.6,0.2,1.3,0.2,1.9,0.2c1.1,0,2.2-0.2,3.3-0.5c1.2-0.4,2.2-1,3.2-1.9    c0.1-0.1,0.2-0.2,0.3-0.2c0.1-0.1,0.2,0,0.3,0.1c0,0.2,0.1,0.4,0.1,0.5C240,36.8,240,37,240,37.2z M209.9,24.5    c-0.2,0-0.4,0.1-0.6,0.1c-0.5,0.2-0.9,0.5-1.3,0.9c-1.4,1.4-2.4,3.1-3,5c-0.2,0.5-0.3,1.1-0.2,1.7c0.1,0.5,0.3,0.8,0.7,1    c0.3,0.1,0.6,0.1,0.9,0c0.8-0.1,1.3-0.6,1.8-1.2c0.5-0.7,0.8-1.5,1-2.3c0.5-1.7,0.6-3.4,0.6-5.1C209.9,24.6,209.9,24.6,209.9,24.5    z"/>
		<path class="st0" d="M182.4,6.8c0.3,0,0.6,0,0.9,0.1c1.7,0.2,3.3,0.6,4.7,1.5c1,0.7,1.8,1.5,2.2,2.7c0.2,0.5,0.3,1.1,0.3,1.6    c0,0.9-0.1,1.9-0.4,2.8c-0.6,1.4-1.7,2.3-3.2,2.6c-0.7,0.1-1.5,0.1-2.2-0.1c-0.4-0.1-0.7-0.3-0.9-0.7c-0.1-0.2-0.1-0.2,0.1-0.4    c0.8-0.6,1.5-1.4,2-2.2c0.3-0.5,0.5-1.1,0.4-1.7c-0.1-1-0.6-1.8-1.3-2.4c-0.7-0.5-1.4-0.8-2.3-0.9c-1-0.1-1.9-0.1-2.9,0    c-1.1,0.1-2.1,0.4-3.1,0.8c-2.1,1-3.3,2.6-3.7,4.8c-0.1,0.5-0.1,1-0.1,1.6c0,0.7,0.2,1.3,0.6,1.9c0.4,0.6,1,1.1,1.5,1.5    c0.9,0.7,1.9,1.3,2.9,1.8c1.5,0.8,3,1.5,4.5,2.3c1.4,0.7,2.7,1.4,4,2.4c0.7,0.6,1.4,1.2,2,2c0.6,0.9,1,1.9,0.9,3    c0,1.6-0.4,3.2-1.3,4.6c-0.7,1.2-1.7,2.2-2.8,3c-1.6,1.2-3.4,1.9-5.3,2.4c-1.5,0.4-3.1,0.6-4.7,0.7c0,0-0.1,0-0.1,0    c-0.4,0-0.8,0-1.2,0c0,0-0.1,0-0.1,0c-0.4-0.1-0.8-0.1-1.2-0.2c-1-0.2-1.9-0.6-2.6-1.3c-1-0.9-1.5-2.1-1.6-3.5    c-0.1-1.5,0.1-3,0.6-4.4c0.4-1.1,1-2,1.8-2.8c1.3-1.1,2.8-1.5,4.4-1.5c1,0,1.8,0.8,1.9,1.8c0,0.1,0,0.2-0.1,0.2    c-1.2,0.4-2.3,1.1-3.2,2.1c-0.9,1-1.4,2.2-1.5,3.5c-0.1,1.2,0.4,2,1.4,2.6c0.6,0.3,1.2,0.4,1.8,0.4c0.5,0,1-0.1,1.5-0.2    c1.5-0.3,3-0.8,4.3-1.7c1.6-1,2.6-2.4,3-4.3c0.1-0.5,0.2-1.1,0.1-1.7c-0.1-0.7-0.4-1.3-0.9-1.8c-0.7-0.7-1.4-1.2-2.3-1.7    c-1.3-0.8-2.7-1.4-4.1-2c-1.5-0.7-3-1.4-4.4-2.3c-1.1-0.7-2.2-1.5-3.1-2.5c-0.7-0.8-1.2-1.8-1.4-2.9c-0.1-0.3-0.1-0.6-0.1-0.9    c0-0.3,0-0.7,0-1c0,0,0-0.1,0-0.1c0.1-0.5,0.1-1,0.2-1.5c0.3-1.5,0.8-2.8,1.8-4c1-1.3,2.4-2.1,3.9-2.7c1.8-0.7,3.8-1,5.7-1.2    c0.3,0,0.6,0,0.9-0.1C181.3,6.8,181.8,6.8,182.4,6.8z"/>
		<path class="st0" d="M232,30.3c-0.1,0.6-0.1,1.2,0.1,1.7c0.3,0.7,0.8,1.1,1.5,1.1c1.4,0.2,2.7-0.2,3.8-1.1    c0.3-0.2,0.6-0.5,0.8-0.8c0.1-0.1,0.1-0.1,0.2,0c0,0,0.1,0,0.1,0.1c0.4,0.3,0.7,0.7,0.9,1.2c0.1,0.4,0,0.7-0.2,1    c-0.3,0.4-0.7,0.7-1.1,1c-1.1,0.7-2.2,1.2-3.5,1.4c-1.2,0.2-2.3,0.1-3.4-0.3c-1.4-0.5-2.3-1.5-2.8-2.9c-0.6-1.7-0.5-3.4,0.2-5.1    c1.1-2.4,2.8-4.1,5.2-5.1c1.4-0.6,2.8-0.6,4.2-0.1c0.4,0.2,0.7,0.4,1.1,0.7c0.5,0.4,0.7,0.9,0.8,1.6c0.1,2.5-1.3,4.2-3.2,5.1    c-1.3,0.6-2.7,0.8-4.2,0.7C232.3,30.3,232.2,30.3,232,30.3z M232.4,29.1c0.1,0,0.1,0,0.1,0c0.6,0,1.3-0.1,1.9-0.4    c1.1-0.5,1.8-1.4,2.3-2.4c0.3-0.7,0.5-1.4,0.4-2.2c0-0.3-0.2-0.5-0.5-0.4c0,0-0.1,0-0.1,0c-0.6,0.1-1,0.4-1.4,0.8    c-1.1,1-1.9,2.3-2.4,3.7C232.5,28.5,232.5,28.8,232.4,29.1z"/>
	</g>
	<g>
		<path class="st0" d="M154.4,45.6c-0.2,0-0.3-0.2-0.3-0.3V4.8c0-0.2,0.2-0.3,0.3-0.3c0.2,0,0.3,0.2,0.3,0.3v40.4    C154.7,45.4,154.5,45.6,154.4,45.6z"/>
	</g>
	<g>
		<path id="F1_Team_00000031928241790839230500000003709667857174311316_" class="st0" d="M43.8,45.2v-9.1h5.8v1.6h-4v2.7h3.2V42    h-3.2v3.2H43.8z M54.7,36.4v8.8h-1.8v-6.7L51,39.7l-0.8-1.4l2.9-1.9H54.7z M56.6,36.8c0,0.3-0.2,0.5-0.5,0.5    c-0.3,0-0.5-0.2-0.5-0.5c0-0.3,0.2-0.5,0.5-0.5C56.3,36.2,56.6,36.5,56.6,36.8z M55.6,36.8c0,0.2,0.2,0.4,0.4,0.4    c0.2,0,0.4-0.2,0.4-0.4c0-0.2-0.2-0.4-0.4-0.4C55.8,36.3,55.6,36.5,55.6,36.8z M56,37h-0.1v-0.5c0,0,0.1,0,0.2,0    c0.1,0,0.1,0,0.2,0c0,0,0.1,0.1,0.1,0.1c0,0.1,0,0.1-0.1,0.1v0c0.1,0,0.1,0.1,0.1,0.1c0,0.1,0,0.1,0,0.1h-0.1c0,0,0-0.1,0-0.1    c0-0.1,0-0.1-0.1-0.1H56V37z M56,36.7L56,36.7c0.1,0,0.2,0,0.2-0.1c0,0,0-0.1-0.1-0.1c0,0-0.1,0-0.1,0V36.7z M60.7,37.8v-1.6h6.7    v1.6h-2.4v7.4h-1.8v-7.4H60.7z M68.8,45.2v-9.1h5.9v1.6h-4v2.1h3.2v1.6h-3.2v2.2h4v1.6H68.8z M75.8,45.2l2-9.1h3.5l2,9.1h-1.8    l-0.4-1.6H78l-0.4,1.6H75.8z M79.3,37.7L78.4,42h2.5l-0.9-4.3H79.3z M84.9,45.2v-9.1h3.1l1.6,6.6l1.6-6.6h3.1v9.1h-1.8v-7h-0.2    l-1.8,6.6h-1.8L87,38.2h-0.2v7H84.9z"/>
		<path class="st0" d="M140.3,15h-1.2c0,0-0.1,0-0.1,0.1c0.1,1.2-1.1,2.2-2.8,2.7c0,0,0,0,0,0c-0.5-5-10.6-0.9-11.7,4c0,0,0,0,0,0    c-4.6,2.3-6.7,0.5-6.9-0.2c0,0,6.5-1.9,6.8-5c0.1-2.6-8.7-0.6-10.3,5.1c-1.8,1-4,1-4,0.6c-0.1-0.9,2.8-3.3,3.4-4.7    c0.6-1.6-1.1-1.5-1.1-1.5c-1.4,0.2-5.3,1.4-5.3,1.4c0.5-2.9-3.7-0.6-6.6,0c0.2-2-1.6-1.6-7.9,0.2c-0.5-5-10.7-0.9-11.8,4    c-2.5,1.2-3.6,0.9-3.6,0.1c0.1-1.1,2.2-3.3,1.4-4.8c9.1-2.4,7.6-9.3,3.2-11.2c0,0,0,0,0,0c0.5-0.4,1-0.7,1.4-0.9    c0,0,0.1-0.1-0.1-0.1l-1.7,0c-0.1,0-0.1,0-0.2,0.1c-0.2,0.1-0.5,0.3-0.7,0.5c-14.9-3.9-25.8,11-15.2,12.4l2.2-1.9    c0.5-0.4,0.3-0.5-0.1-0.5c-1,0-1.7-0.2-2.1-0.5C60.6,11.5,69.5,4.5,78.4,7C73,11.1,66.6,24.1,60.6,20.2c0,0,0,0,0,0    c-0.2-0.1-0.3,0-0.5,0.1c-1.1,1.2-3,2.7-3,2.7c-0.2,0.1-0.2,0.4,0,0.5c7.4,3.3,11.6-1.5,15.7-7.2c0.4,0.8,1.6,1.8,3.6,1.3    c0,1.1-3.9,4.7-4.1,5.4c-0.9,2.8,5.5,1.2,8.4-0.1c1.9,4.1,10-0.1,11.4-3.8c3.9-1.3,3.2,0.1,2.9,0.6c-2.4,3-3.8,4.4-3.8,4.7    c0,0.1,0.1,0.2,0.2,0.2h2.6c0.4,0,0.6-0.2,0.9-0.4c0.2-0.2,3.6-4.3,4.3-5.1c4.2-1.7,2.4,0.6,2.4,0.6c-2.4,2.9-3.8,4.4-3.8,4.7    c0,0.1,0.1,0.2,0.2,0.2h2.6c0.4,0,0.6-0.2,0.9-0.4c0.2-0.2,3.8-4.5,4.3-5.2c4-1.4,2.3,0.6,2.1,0.8c-0.2,0.3-2.4,2.8-2.5,3.2    c-0.4,2,1.8,2.4,8.6-0.3c2,4,9.5,0.3,10.3-0.1c0,0.1,0,0.2,0.1,0.3c1.9,4.1,10-0.1,11.4-3.8c0,0,0,0,0,0c4-1.1,4.6-3.9,4.6-4    C140.4,15,140.4,15,140.3,15z M79.7,7.7c4.4,2.9,1.2,6.6-1.9,8c-0.6-0.7-1.9-1.6-3.8-0.9C75.8,12.3,77.6,9.7,79.7,7.7z M73.9,15.8    c0.8-0.9,2.6-0.1,2.6,0.5C74.9,17,73.8,15.9,73.9,15.8z M91.1,18.3C91.1,18.3,91.1,18.4,91.1,18.3c-1.9,1-1.5,2.3-1.7,2.5    c-2.4,2.1-4.1,2-4.6,1.4c-1.5-1.7,4-7,6.2-5.1C91.2,17.3,91.2,17.8,91.1,18.3z M122,16.6c0.3-0.1,0.4,0.1,0.3,0.4    c-0.7,2.6-5,3.7-5,3.7S117.8,17.2,122,16.6z M134.7,18.4c-1.9,0.8-1.4,2.2-1.7,2.4c-2.4,2.1-4.1,2-4.6,1.4c-1.5-1.7,4-7,6.2-5.1    C134.9,17.3,134.9,17.9,134.7,18.4z M56.9,20h-1.4c0,0-0.1,0-0.1,0.1c-0.6,1.1-2.6,2.4-4.6,2.9c-3.7,1.1-1.5-1.9-1.5-1.9    c3.3-4,3.5-4.3,3.8-4.7c0.1-0.1-0.1-0.2-0.3-0.2h-2.4c-0.6,0-1,0.3-1.3,0.6c0,0-0.1-0.1-0.1-0.1c-1-1.6-4.9-1.4-7.8,0.5    c-2,1.3-3.3,3-3.7,4.4c-1.5,0-2.8-0.2-3.9-0.5l2.7-3.3c5.7-1.6,15-10.6,10.4-10.5c-3.9,0.5-9.1,4.6-15.8,12.4    c-0.2-0.2-1.4-1-2.1-0.4c-0.4,0.3-0.3,1,0.2,1.5C22,23.4,22.4,22,23,21.1c0.5-0.7,2.3-3.3,2.3-3.3c7-2.2,16.2-11.8,9.9-10.4    c-2.7,0.6-8.2,4-16,13.3c-3.6,1.7-6.3,2.7-3.8-0.6c2.6-3.3,10.7-12.4,10.7-12.7c0-0.1-0.1-0.2-0.3-0.2h-3.3    c-0.5,0-0.9,0.4-1.2,0.7c-1.9-1.2-4.4-0.8-4.4-0.8C7.6,7.8-0.7,16.6,0,21.6c0.2,1.3,1.4,3.1,4.1,3.1c0.6,0,2.9-0.3,5.4-1.5    c0,0-1.1,3.2,8.2-0.1c0,0.1-1.4,3.5,10.5-0.6c-0.1,0.2-4.2,4.7-6.3,6.8c-4.8,4.9-8.2,1.7-8.4,1.5c0,0-0.1,0-0.1,0l-0.9,0.8    c0,0-0.1,0.1,0,0.2c7.7,5.7,15.9-5,20-9.3c1.3,0.3,3,0.4,5,0.1c0,0.4,0.1,0.7,0.3,1c0.9,1.4,4.1,1.4,6.8,0c0,0,0.4,2,5.9,0.7    c2.7-0.6,5.7-2.6,6.5-4.1C57,20.1,56.9,20,56.9,20z M44.6,9c1.1-0.7,1.1,0.8-0.5,2.5c-3.8,4-6.8,4.6-6.8,4.6S41.3,11,44.6,9z     M34,9c1.1-0.7,1.1,0.8-0.5,2.5c-3.8,4-6.8,4.6-6.8,4.6S30.7,11,34,9z M6.7,22C1,21.3,6,14.4,11.5,10.8c3.9-2.6,8-3.3,8.3-1.2    c-0.1,0.6-0.5,1.4-1.5,2.5c-1,1.1-4.1,4.7-6.6,7.6C9.9,21.4,7.8,22.1,6.7,22z M47.9,18.3c-0.8,1-1.9,2.3-2.7,3.4    c-1.6,1.1-3.2,1.4-3.8,0.7c-0.7-0.8,0.1-2.7,1.9-4.1c1.7-1.5,3.7-2,4.4-1.2C47.9,17.4,48,17.8,47.9,18.3z"/>
	</g>
</g>
</svg>