<?xml version="1.0" encoding="UTF-8"?>
<svg width="482" height="442" version="1.2" viewBox="0 0 361.5 331.5" xmlns="http://www.w3.org/2000/svg">
 <g transform="matrix(1.7725 0 0 1.7725 -1030 -514.96)">
  <g>
   <g fill="#02192b">
    <path d="m613.26 393.02 27.172 0.0195 29.094-22.488h49.402l-7.3281 22.488h21.977l7.2812-22.488h24.766l18.422-14.266h-38.508l21.137-64.918h-22.004l-83.902 64.918h-33.168l9.1484-28.098-54.781 42.363h60.348zm122.29-73.535-11.961 36.801h-35.613z"/>
    <path d="m636.04 454.89h1.6875v-5.2461h5.9453v-1.5234h-5.9453v-3.5586h6.4844v-1.5234h-8.1719z"/>
    <path d="m649.43 444.49h2.9609v10.398h1.6914v-11.855h-4.6523z"/>
    <path d="m661.37 442.68c-1.1914 0-2.0547 0.78125-2.0547 2.0547 0 1.2617 0.86328 2.0547 2.0547 2.0547 1.1797 0 2.0547-0.79297 2.0547-2.0547 0-1.2734-0.875-2.0547-2.0547-2.0547m0 3.7461c-0.96485 0-1.6836-0.63282-1.6836-1.6914 0-1.0664 0.71875-1.7031 1.6836-1.7031 0.95703 0 1.6641 0.63671 1.6641 1.7031 0 1.0586-0.70703 1.6914-1.6641 1.6914"/>
    <path d="m662.28 444.3c0-0.45312-0.29688-0.67968-0.87109-0.67968h-0.89454v2.2305h0.49219v-0.83204h0.3086l0.47265 0.83204h0.53516l-0.51563-0.91407c0.3086-0.0937 0.47266-0.30859 0.47266-0.63672m-0.85156 0.31641h-0.42188v-0.59375h0.42188c0.23437 0 0.33984 0.11328 0.33984 0.28516 0 0.19531-0.10547 0.30859-0.33984 0.30859"/>
    <path d="m673.38 444.56h4.0977v10.328h1.6875v-10.328h4.0938v-1.5273h-9.8789z"/>
    <path d="m688.83 454.89h8.1719v-1.5273h-6.4805v-3.7188h5.9414v-1.5234h-5.9414v-3.5586h6.4805v-1.5234h-8.1719z"/>
    <path d="m706.17 443.04-4.2227 11.852h1.7969l1.0781-3.1094h5.1367l1.0742 3.1094h1.7969l-4.2383-11.852zm-0.8086 7.2188 2.0274-5.8555 2.0312 5.8555z"/>
    <path d="m724.76 453.61-3.375-10.574h-2.8945v11.852h1.6914v-10.273l3.2852 10.273h2.5859l3.3203-10.398v10.398h1.6914v-11.852h-2.9297z"/>
    <path d="m581.96 428.86h5.5352l2.9258-3.3008h15.879l2.9297 3.3008h5.5352l-16.402-17.914zm11.266-6.4258 5.1367-5.7812 5.1367 5.7812z"/>
    <path d="m702 411.5h-4.6875v17.367h4.6875z"/>
    <path d="m741.03 422.21-19.402-10.719h-4.7383v17.367h4.3438v-12.828l24.188 13.324v-17.863h-4.3906z"/>
    <path d="m629.53 411.5h-4.6914v17.367h21.316l1.3125-3.125h-17.938z"/>
    <path d="m765 425.74v-4.1445h19.031v-3.125h-19.031v-3.8477h19.031v-3.125h-23.719v17.367h23.469l0.87109-3.125z"/>
    <path d="m677.39 411.5h-20.07v17.367h4.6875v-5.8047h15.16c5.6328 0 7.8164-2.3594 7.8164-5.8555 0-3.375-2.3828-5.707-7.5938-5.707m-1.1172 8.4336h-14.266v-5.3086h14.242c2.8281 0 3.6953 0.86719 3.6953 2.707 0 1.6094-1.2148 2.6016-3.6719 2.6016"/>
   </g>
   <path d="m668.39 473.67-3.7617 2.9726h13.598l3.7617-2.9726z" fill="#2173b8"/>
   <path d="m681.99 473.67-3.7617 2.9726h6.3438l3.7617-2.9726z" fill="#fffffd"/>
   <path d="m688.34 473.67-3.7617 2.9726h13.648l3.7617-2.9726z" fill="#e12319"/>
  </g>
 </g>
</svg>
