<?xml version="1.0" encoding="utf-8"?>
<!-- Generator: Adobe Illustrator 26.0.3, SVG Export Plug-In . SVG Version: 6.00 Build 0)  -->
<svg version="1.0" id="katman_1" xmlns="http://www.w3.org/2000/svg" xmlns:xlink="http://www.w3.org/1999/xlink" x="0px" y="0px"
	 viewBox="0 0 202.1 136.9" style="enable-background:new 0 0 202.1 136.9;" xml:space="preserve">
<style type="text/css">
	.st0{clip-path:url(#SVGID_00000139293479174417488120000006616546053615715213_);}
</style>
<g>
	<defs>
		<rect id="SVGID_1_" x="32.1" y="22" width="138" height="93"/>
	</defs>
	<clipPath id="SVGID_00000166642006654830529120000013424296497658883764_">
		<use xlink:href="#SVGID_1_"  style="overflow:visible;"/>
	</clipPath>
	<g style="clip-path:url(#SVGID_00000166642006654830529120000013424296497658883764_);">
		<path d="M101.3,60.8c-18,0-45.7,0.1-69.3,0.6v0.1c23.6,0.6,52.5,0.7,70.5,0.7c6.7,0,40.3,0,67.6-0.6v-0.1
			C151.4,61.1,127,60.8,101.3,60.8z"/>
		<path d="M162.4,22h-51c-1,0-2.2,0-3.6,1.4c-1.2,1.2-1,2.6-3,2.6h-7.5c-2.1,0-1.8-1.2-3-2.6C92.9,22,91.6,22,90.7,22h-51
			c-1.8,0-2.5,1.5-1.7,2.9l1,1.5c0.4,0.8,1.1,1,1.5,1.1c0.4,0.1,0.7,0.1,1.1,0.7l0.8,1.4c0.7,1.1,1.4,1.2,1.9,1.4
			c0.4,0.1,0.8,0.1,1.4,1.1c0.6,1.1,1.4,2.4,3.2,2.9l19.1,5.5c1.9,0.7,2.5,1.4,3,2.2c0.3,0.4,1.2,2.1,3.9,2.8l18,5
			c1.7,0.4,2.9-0.1,3.7-1l3.3-3c0.8-0.8,1.2-0.8,2.1,0l3.3,3c0.8,0.7,2.1,1.4,3.7,1l18.2-4.9c2.6-0.7,3.5-2.2,3.9-2.8
			c0.6-0.8,1.1-1.5,3-2.2l19.1-5.5c1.8-0.6,2.6-1.9,3.2-2.9c0.6-1,1-1,1.4-1.1c0.6-0.1,1.2-0.3,1.9-1.4l0.8-1.4
			c0.1-0.7,0.4-0.7,0.8-0.8c0.4-0.1,1.1-0.3,1.7-1.1l1-1.5C165.1,23.5,164.2,22,162.4,22z M39.7,25.2l-0.6-1
			c-0.1-0.3-0.3-0.8,0.6-0.8h51.1c1,0,2.2,0,3.3,1.9c0.1,0.3,0.3,0.6,0.4,0.8H42.9C40.8,26.1,40.4,26.1,39.7,25.2z M72.8,27.1h56.5
			V36H72.8V27.1z M43.7,29.3c-0.4-0.6-0.7-1.5-1.1-2.1l29.2-0.1v1.2L47,29.7C45.1,30,44.4,29.9,43.7,29.3z M47.6,32.6
			c-0.3-0.4-0.6-0.7-0.7-1.1c-0.1-0.1-0.3-0.4-0.3-0.6c0.4,0,0.4,0,1.1-0.1l24.1-1.5v1.4l-19.1,2.2C50.2,33.2,48.4,33.6,47.6,32.6z
			 M54.1,35.3c-1.4-0.4-2.6-0.8-3.5-1C53,34,71.8,32,71.8,32v1.5l-12.2,1.9C58.1,35.6,56.5,35.8,54.1,35.3z M62.7,37.8
			c-1.2-0.4-2.5-0.7-3.9-1.1c0.4,0,0.6-0.1,1-0.1c1.2-0.1,12.1-2.1,12.1-2.1v1.7l-4.6,1.2C67.3,37.4,64.5,38.2,62.7,37.8z
			 M68.4,39.4c-0.1,0-1-0.3-2.2-0.7c0.8-0.1,1.2-0.3,1.4-0.3c0.1,0,5-1.4,5-1.4h5.5l-5.1,2.4C71.3,40,69.9,39.9,68.4,39.4z
			 M73.5,43.6c-0.6-0.4-1-0.8-1.2-1.4c-0.3-0.4-0.6-0.8-1.1-1.2c0.1,0,0.6,0,1.2-0.1c0.6-0.1,1.9-0.7,1.9-0.7l6.1-3h4.2l-8.2,5.7
			C75.2,43.5,74.2,43.7,73.5,43.6z M79.6,45.5l-3.9-1.1c0.6-0.3,1.1-0.6,1.5-0.8c0.4-0.3,0,0,9.3-6.7H90l-6.2,6.4
			C82.4,44.6,81.1,45.8,79.6,45.5z M85.8,47.2l-3.7-1c1-0.6,1.9-1.5,2.2-1.9l7.1-7.2h3l-5.5,8.7C87.9,47.1,86.8,47.5,85.8,47.2z
			 M92.3,49l-3.9-1.1c0.1-0.1,0.8-0.6,1.5-1.7l5.8-9.3h2.6c0,0-3.5,10.1-3.6,10.5C94,49,93.2,49.1,92.3,49z M106.3,48.6l-3.3-3
			c-1.4-1.2-2.5-1.2-3.9,0l-3.3,3c-0.3,0.3-0.6,0.4-0.7,0.6c0.6-0.7,1-1.8,1.2-2.5l3.2-9.7h3l3.2,9.7c0.3,0.7,0.6,1.8,1.2,2.5
			C106.7,49,106.6,48.9,106.3,48.6z M109.9,49c-1,0.1-1.8,0.1-2.5-1.4c-0.3-0.6-3.6-10.5-3.6-10.5h2.6l5.8,9.3
			c0.7,1.1,1.4,1.5,1.5,1.7L109.9,49z M116.4,47.2c-1.1,0.1-2.1-0.1-3-1.5l-5.5-8.7h3l7.1,7.2c0.4,0.4,1.2,1.4,2.2,1.9L116.4,47.2z
			 M122.7,45.5c-1.7,0.3-2.8-1-3.9-2.1l-6.4-6.5h3.5c0,0,8.9,6.4,9.3,6.7c0.4,0.3,1,0.6,1.5,0.8L122.7,45.5z M130,42.2
			c-0.4,0.6-0.7,1-1.2,1.4c-0.7,0.3-1.7,0-2.9-0.8c-0.4-0.3-8-5.7-8-5.7h4.2c0,0,4.7,2.4,6.1,3c0.8,0.4,1.8,0.8,3.2,1
			C130.6,41.4,130.3,41.8,130,42.2z M133.8,39.4c-1.4,0.4-2.9,0.6-4.6,0c-0.6-0.3-5.1-2.4-5.1-2.4h5.5c0,0,4.8,1.4,5,1.4
			c0.1,0,0.6,0.1,1.4,0.3C134.9,39.2,134,39.4,133.8,39.4z M139.6,37.8c-1.8,0.6-4.7-0.4-4.7-0.4l-4.6-1.2v-1.7
			c0,0,10.8,1.8,12.1,2.1c0.4,0,0.7,0.1,1,0.1C142.1,37.1,140.8,37.4,139.6,37.8z M148,35.3c-2.4,0.6-4,0.3-5.4,0.1
			c-1.2-0.3-12.2-1.9-12.2-1.9V32l21.2,2.4C150.7,34.6,149.4,34.9,148,35.3z M155.2,31.5c-0.3,0.4-0.4,0.8-0.7,1.1
			c-0.8,0.8-2.5,0.6-5.1,0.3l-19-2.1v-1.4c0,0,23.8,1.5,24.1,1.5c0.7,0,0.7,0,1.1,0.1C155.5,31.1,155.4,31.4,155.2,31.5z M158,29.5
			c-1,0.6-1.9,0.4-5.1,0.3l-22.4-1.4v-1.2l29.2,0.1C159,28.1,158.8,28.9,158,29.5z M163,24.2l-0.6,1c-0.6,1-1,1-3,1h-51.8
			c0.3-0.3,0.4-0.6,0.6-0.8c1.1-1.9,2.2-1.9,3.3-1.9h51.1C163.3,23.4,163.1,23.9,163,24.2z M105.4,34.2c-0.1-1.7-0.3-2.5-0.3-3.2
			c-0.8,1.5-1.2,2.4-1.5,3h-0.3c-0.8-1.8-1-1.9-1.2-2.4c-0.1-0.1-0.1-0.3-0.4-0.7c-0.1,0.7-0.3,1.9-0.3,3.2h-0.8
			c0.3-1.8,0.7-5,0.7-5.3h0.6c0,0,1.2,2.5,1.8,3.5c0.7-1.1,1.1-2.1,1.9-3.5h0.6c0.1,0.7,0.4,3.2,0.6,5.3H105.4z M121.4,29h-1.1v5.3
			h1.1V29z M118.4,34.2v-4.4c0.8,0,1.2,0,1.5,0.1V29h-4.2v0.8c0.4,0,0.8-0.1,1.7-0.1v4.4H118.4z M85.7,34.2v-4.4
			c0.8,0,1.2,0,1.5,0.1V29h-4.2v0.8c0.4,0,0.8-0.1,1.7-0.1v4.4H85.7z M97.9,34.2V29H97v3.3L93.9,29h-0.6v5.3h0.8v-3.6l3.2,3.6h0.6
			V34.2z M79.6,32.8v1.1c0.3,0.1,0.7,0.4,1.4,0.4c1.1,0,2.1-0.7,2.1-1.7c0-0.3-0.1-1-0.8-1.4c-0.7-0.3-1.1-0.4-1.4-0.6
			c-0.6-0.4-0.1-1.1,0.6-1.1c0.3,0,0.7,0,0.8,0.6h0.4v-1c-0.3-0.1-0.7-0.3-1.2-0.3c-0.4,0-0.8,0.1-1.1,0.4c-0.8,0.6-1,1.8,0.1,2.5
			c0.7,0.4,1.7,0.4,1.7,1.1c0,0.6-0.6,0.8-1,0.8c-0.8,0-1.1-0.7-1.1-0.8L79.6,32.8z M79.6,34.2l-2.4-5.3h-0.4l-2.4,5.4h1
			c0.1-0.4,0.3-0.7,0.6-1.5h1.8c0.3,0.6,0.4,1.1,0.6,1.5h1.2V34.2z M76.3,32.1c0.1-0.3,0.1-0.4,0.6-1.5c0.6,1.1,0.6,1.2,0.7,1.5
			H76.3z M92.6,31.5c0-1.8-1.4-2.8-2.8-2.8c-1.4,0-2.8,1-2.8,2.8c0,1.8,1.4,2.8,2.8,2.8C91.2,34.4,92.6,33.5,92.6,31.5z M89.8,33.8
			c-0.8,0-1.5-0.8-1.5-2.1c0-1.4,0.8-2.1,1.5-2.1c0.8,0,1.5,0.7,1.5,2.1C91.5,32.9,90.7,33.8,89.8,33.8z M112,34.2h1V32h0.3l1.8,2.2
			h1.2l-1.9-2.4c0.3-0.1,0.6-0.3,0.7-0.4c0.6-0.6,0.6-1.4,0-2.1c-0.3-0.1-0.7-0.4-1.5-0.4c0,0-1.2,0-1.5,0V34.2z M113,29.6
			c0.1,0,0.3,0,0.4,0c1.1,0,1.1,0.8,1.1,0.8c0,0.6-0.6,1.1-1.4,0.8v-1.7H113z M111.7,34.2l-2.4-5.3H109l-2.4,5.4h1
			c0.1-0.4,0.3-0.7,0.6-1.5h1.8c0.3,0.6,0.4,1.1,0.6,1.5h1.2V34.2z M108.4,32.1c0.1-0.3,0.1-0.3,0.7-1.5c0.4,1.1,0.6,1.2,0.6,1.5
			H108.4z M127.1,34.2V29h-0.8v3.3l-3.2-3.3h-0.6v5.3h0.8v-3.6l3.2,3.6h0.6V34.2z"/>
		<path d="M91.5,105.7h-0.7l-4,8.9h1.5c0.1-0.6,0.3-1.1,0.8-2.5h3.2c0.4,1,0.7,1.8,1,2.5h1.9L91.5,105.7z M91,108.3
			c1,2.2,1,2.2,1.2,2.8h-2.4C90,110.5,90,110.5,91,108.3z"/>
		<path d="M151.9,105.7h-0.7l-4,8.9h1.5c0.1-0.6,0.3-1.1,0.8-2.5h3.2c0.4,1,0.7,1.8,1,2.5h1.9L151.9,105.7z M151.4,108.3
			c1,2.2,1,2.2,1.2,2.8h-2.4C150.4,110.5,150.4,110.5,151.4,108.3z"/>
		<path d="M68.8,114.6c-0.3-2.8-0.4-4.4-0.6-5.5c-1.5,2.6-2.1,4-2.8,5.4h-0.6c-1.5-3-1.7-3.3-2.1-4c-0.1-0.3-0.3-0.6-0.7-1.2
			c0,0.6-0.3,3-0.6,5.4h-1.4c0.4-3.2,1.1-8.5,1.1-8.7h0.8c0.1,0.3,0.3,0.4,0.4,0.7c1,1.9,1.8,3.6,2.8,5.3c0.4-0.8,0.8-1.5,1.2-2.2
			c0.6-1.1,1.2-2.2,1.9-3.7h1c0,0.3,0.6,4.6,1,8.7H68.8z"/>
		<path d="M164.8,114.6c-0.3-2.8-0.4-4.4-0.6-5.5c-1.5,2.6-2.1,4-2.8,5.4h-0.6c-1.5-3-1.7-3.3-2.1-4c-0.1-0.3-0.3-0.6-0.7-1.2
			c0,0.6-0.3,3-0.6,5.4h-1.4c0.4-3.2,1.1-8.5,1.1-8.7h0.8c0.1,0.3,0.3,0.4,0.4,0.7c1,1.9,1.8,3.6,2.8,5.3c0.4-0.8,0.8-1.5,1.2-2.2
			c0.6-1.1,1.2-2.2,1.9-3.7h0.7c0,0.3,0.6,4.6,1,8.7H164.8z"/>
		<path d="M46.6,115c-1.8,0-2.9-1-3.2-1.2c-0.7-0.7-1.4-1.8-1.4-3.5c0-1.7,0.7-2.8,1.4-3.5c0.3-0.3,1.4-1.2,3.2-1.2
			c1.1,0,3.2,0.4,4.2,2.6c0.3,0.6,0.4,1.2,0.4,1.9c0,1.7-0.7,2.8-1.4,3.5C49.5,114,48.4,115,46.6,115z M46.6,113.9
			c1.4,0,2.8-1.2,2.8-3.6c0-2.4-1.4-3.6-2.8-3.6c-1.4,0-2.8,1.2-2.8,3.6C43.8,112.6,45.2,113.9,46.6,113.9z"/>
		<path d="M104.1,115c-1.8,0-2.9-1-3.2-1.2c-0.7-0.7-1.4-1.8-1.4-3.5c0-1.7,0.7-2.8,1.4-3.5c0.3-0.3,1.4-1.2,3.2-1.2
			c1.1,0,3.2,0.4,4.2,2.6c0.3,0.6,0.4,1.2,0.4,1.9c0,1.7-0.7,2.8-1.4,3.5C107,114,106.1,115,104.1,115z M104.3,113.9
			c1.4,0,2.8-1.2,2.8-3.6c0-2.4-1.4-3.6-2.8-3.6c-1.4,0-2.8,1.2-2.8,3.6C101.5,112.6,102.9,113.9,104.3,113.9z"/>
		<path d="M52.7,105.8c0.4,0,2.5,0,2.5,0c1.5,0,2.1,0.3,2.6,0.8c0.4,0.4,0.7,1.1,0.7,1.8c0,0.6-0.3,1.2-0.7,1.7
			c-0.4,0.4-1,0.7-1.2,0.7l3.3,3.9H58l-2.9-3.6h-0.6v3.6h-1.7L52.7,105.8z M54.9,106.8c-0.1,0-0.4,0-0.7,0v3c0.3,0,0.4,0,0.7,0
			c1.2,0,1.9-0.8,1.9-1.7c0-0.1,0-0.7-0.4-1.1C56,106.9,55.6,106.8,54.9,106.8z"/>
		<path d="M81.4,114.6v-8.7h1.7v7.6h3.6v1.1H81.4z"/>
		<path d="M126.4,106.2h-0.7v-0.4h1.8v0.4h-0.7v1.9h-0.4V106.2z"/>
		<path d="M129.9,107.2c0-0.3,0-0.7,0-1c-0.1,0.3-0.1,0.6-0.3,0.8l-0.3,1h-0.3l-0.3-1c-0.1-0.3-0.1-0.6-0.3-0.8c0,0.3,0,0.7,0,1v1
			h-0.4l0.1-2.2h0.6l0.3,1c0.1,0.3,0.1,0.6,0.3,0.8c0-0.3,0.1-0.6,0.3-0.8l0.3-1h0.6l0.1,2.2h-0.4L129.9,107.2z"/>
		<path d="M117,114.6c-0.4-0.4-2.9-3.3-5.4-6.1v6.1h-1.2v-8.7h0.8l5.4,5.8v-5.8h1.2v8.7H117z"/>
		<path d="M136.1,114.6v-7.5c-1.4,0-2.2,0.1-2.8,0.1v-1.4h7.1v1.4c-0.4,0-1.2-0.1-2.6-0.1v7.5H136.1z"/>
		<path d="M121.3,113.4v-2.8h3v-1.1h-3v-2.6c0.7,0,1.8,0,3.6,0.1v-1.2h-5.1v8.7h5.3v-1.2C123.9,113.4,122.5,113.4,121.3,113.4z"/>
		<path d="M143,113.4v-2.8h3v-1.1h-3v-2.6c0.7,0,1.8,0,3.6,0.1v-1.2h-5.1v8.7h5.3v-1.2C145.5,113.4,144.3,113.4,143,113.4z"/>
		<path d="M78.1,105.8c0,3.3,0,4.7,0,4.7c0,1.1,0,3-2.2,3c-0.7,0-2.2-0.1-2.2-2.6c0-2.2,0-5,0-5.1H72c0,0.1,0,2.6,0,5.1
			c0,3.6,2.9,3.7,3.6,3.7c2.1,0,3.7-1,3.7-3.7v-5h-1.2V105.8z"/>
		<path d="M41.1,107.1v-1.2h-5.4v8.7h1.7v-3.7h3.3v-1.1h-3.3v-2.8C39,107.1,40,107.1,41.1,107.1z"/>
		<path d="M169.6,71.3c0,1-0.8,1.7-1.7,1.7c-1,0-1.7-0.8-1.7-1.7c0-1,0.8-1.7,1.7-1.7C169,69.6,169.6,70.3,169.6,71.3z M169.4,71.3
			c0-0.8-0.7-1.5-1.5-1.5c-0.8,0-1.5,0.7-1.5,1.5c0,0.8,0.7,1.5,1.5,1.5C168.8,72.8,169.4,72.1,169.4,71.3z M168.3,71.5l0.6,0.8
			h-0.4l-0.6-0.7h-0.3v0.7h-0.3v-1.9h0.7c0.3,0,0.6,0.3,0.6,0.6C168.7,71.2,168.5,71.5,168.3,71.5z M167.7,71.3h0.4
			c0.1,0,0.3-0.1,0.3-0.3c0-0.1-0.1-0.3-0.3-0.3h-0.4V71.3z M105.4,75.2h2.6v15.5h-2.6V75.2z M95.9,74.9c-1.7,0-3.3,0.6-4.6,1.7
			v-1.2h-2.5v15.5h2.6v-8.7c0-2.5,2.1-4.6,4.6-4.6c2.5,0,4.6,2.1,4.6,4.6v8.7h2.6v-8.7C103,78,99.8,74.9,95.9,74.9z M83.7,75.2h2.6
			V90c0,4.4-3.9,8-8,8c-3.9,0-6.7-2.4-7.6-5.5h2.8c0.8,1.8,2.5,3,4.8,3c2.8,0,5.5-2.5,5.5-5.5v-1.2c-1.4,1.4-3.3,2.2-5.5,2.2
			c-4.4,0-8-3.6-8-8c0-4.4,3.6-8,8-8c2.1,0,4,0.8,5.5,2.2v-1.9H83.7z M83.7,83c0-3-2.5-5.5-5.5-5.5c-3,0-5.5,2.5-5.5,5.5
			s2.5,5.5,5.5,5.5C81.3,88.4,83.7,86,83.7,83z M43.8,77.4c2.2,0,4.2,1.2,5,3.2h2.8c-1-3.3-4-5.7-7.8-5.7c-4.4,0-8,3.6-8,8
			c0,4.4,3.6,8,8,8c3.6,0,6.8-2.4,7.8-5.7h-2.8c-0.8,1.9-2.8,3.2-5,3.2c-3,0-5.5-2.5-5.5-5.5S40.8,77.4,43.8,77.4z M68.9,83
			c0,4.4-3.6,8-8,8c-4.4,0-8-3.6-8-8c0-4.4,3.6-8,8-8C65.3,74.9,68.9,78.5,68.9,83z M66.3,83c0-3-2.5-5.5-5.5-5.5
			c-3,0-5.5,2.5-5.5,5.5s2.5,5.5,5.5,5.5C63.8,88.4,66.3,86,66.3,83z M150.7,74.9c-1.7,0-3.3,0.6-4.6,1.7v-1.2h-2.6v15.5h2.6v-8.7
			c0-2.5,2.1-4.6,4.6-4.6s4.6,2.1,4.6,4.6v8.7h2.6v-8.7C157.7,78,154.5,74.9,150.7,74.9z M138.3,75.2h2.6v15.5h-2.6v-1.8
			c-1.4,1.4-3.3,2.2-5.5,2.2c-4.4,0-8-3.6-8-8s3.6-8,8-8c2.1,0,4,0.8,5.5,2.2V75.2z M138.3,83c0-3-2.5-5.5-5.5-5.5
			c-3,0-5.5,2.5-5.5,5.5s2.5,5.5,5.5,5.5C136,88.4,138.3,86,138.3,83z M166.3,77.8v-2.6h-3.9V71h-2.6v4.2v2.6v7.8
			c0,2.9,2.4,5.1,5.1,5.1h1.2v-2.6h-1.1c-1.4,0-2.6-1.1-2.6-2.6v-7.8h3.9V77.8z M106.6,69.6c-1,0-1.7,0.8-1.7,1.7
			c0,1,0.8,1.7,1.7,1.7c1,0,1.7-0.8,1.7-1.7C108.4,70.3,107.6,69.6,106.6,69.6z M123.5,75.2h-12.9v2.6h9.6l-9.6,10.3v2.6h12.9v-2.6
			H114l9.6-10.3V75.2z"/>
	</g>
</g>
</svg>
