<?xml version="1.0" encoding="UTF-8"?>
<svg width="546" height="181" version="1.1" viewBox="0 0 546 181" xmlns="http://www.w3.org/2000/svg">
 <title>Haas F1 Team</title>
 <g transform="matrix(3.5702 0 0 3.5702 1.1692 .90034)">
  <g transform="translate(.0011199)" fill-rule="evenodd">
   <path d="m71.807 27v-10.657h15.397v10.657h3.796v-23h-3.796v9.071h-15.397v-9.071h-3.807v23zm33.248-4.067c-1.224 0.811-2.878 1.258-4.656 1.258-2.264 0-3.786-0.981-3.786-2.44 0-1.494 1.04-2.205 3.709-2.537l3.673-0.44c1.462-0.178 2.394-0.359 2.982-0.762l1e-3 1.721c0 1.242-0.682 2.377-1.923 3.2m2.186 1.625c0.378 1.802 1.679 2.063 3.042 2.063 0.853 0 1.836-0.073 2.565-0.191l0.152-0.025-1e-3 -2.568-0.217 0.042c-0.307 0.059-0.757 0.122-1.102 0.122-0.91 0-1.282-0.36-1.283-1.242l-2e-3 -8.888c-1e-3 -4.238-5.025-4.871-8.018-4.871-5.479 0-8.22 1.873-8.631 5.894l-0.02 0.193h3.431l7e-3 -0.169c0.079-2.092 1.742-3.108 5.084-3.108 3.314 0 4.727 0.757 4.728 2.534 0 1.293-0.901 1.614-2.795 1.81l-3.706 0.379c-5.38 0.559-7.476 2.048-7.475 5.312 0 1.55 0.694 5.155 7.107 5.155 2.407 0 5.573-0.767 7.134-2.442m20.737-4.825c0 1.242-0.682 2.377-1.923 3.2-1.224 0.811-2.878 1.258-4.656 1.258-2.264 0-3.786-0.981-3.786-2.44 0-1.494 1.04-2.205 3.709-2.537l3.674-0.44c1.46-0.178 2.394-0.359 2.981-0.762zm5.804 4.146a6.51 6.51 0 0 1-1.102 0.122c-0.91 0-1.281-0.36-1.282-1.242l-3e-3 -8.888c-1e-3 -4.238-5.024-4.871-8.018-4.871-5.478 0-8.22 1.873-8.631 5.894l-0.02 0.194h3.431l7e-3 -0.17c0.079-2.092 1.742-3.108 5.084-3.108 3.314 0 4.728 0.757 4.729 2.535 0 1.292-0.901 1.613-2.795 1.81l-3.707 0.378c-5.38 0.559-7.476 2.048-7.475 5.312 0 1.55 0.694 5.155 7.107 5.155 2.407 0 5.573-0.767 7.134-2.442 0.378 1.802 1.679 2.063 3.043 2.063 0.852 0 1.835-0.073 2.564-0.191l0.152-0.025-1e-3 -2.568zm1.218-2.998 0.013 0.188c0.286 3.936 3.17 5.931 8.575 5.931 2.604 0 4.654-0.474 6.094-1.407 1.539-0.998 2.319-2.482 2.318-4.41 0-2.557-1.87-4.004-5.886-4.555l-4.448-0.599c-2.166-0.306-2.577-0.895-2.577-1.874 0-0.813 0.44-1.43 1.308-1.834 0.71-0.33 1.718-0.511 2.84-0.511 3.377 0 4.666 1.51 4.747 2.922l8e-3 0.166h3.49l-0.017-0.191c-0.325-3.68-3.235-5.707-8.197-5.707-2.307 0-4.233 0.499-5.571 1.442-1.368 0.964-2.09 2.368-2.09 4.06 0 2.72 2.312 4.247 4.602 4.554l5.17 0.693c2.468 0.342 2.95 1.004 2.95 2.033 1e-3 0.443-0.157 1.078-0.911 1.583-0.82 0.548-2.14 0.826-3.926 0.826-3.682 0-4.995-1.62-4.996-3.134v-0.176z" fill="#e6002d"/>
   <path d="m78.999 31h-10.999v15h2.39v-6.537h8.208l-2e-3 -2.254h-8.206v-3.955h8.61zm6.888 0-0.014 0.17c-0.146 1.668-1.551 2.514-4.18 2.514h-0.693l1e-3 1.968h4.39l4e-3 10.348h2.605l-8e-3 -15zm22.113 2.254v-2.254h-13l1e-3 2.254h5.286v12.746h2.434v-12.746zm5.097 3.687c1.78 0 3.069 0.943 3.41 2.474h-6.955c0.346-1.488 1.744-2.474 3.545-2.474m0.098-1.941c-1.941 0-3.55 0.566-4.65 1.638-0.997 0.97-1.546 2.342-1.545 3.862 2e-3 3.341 2.435 5.5 6.2 5.5 1.97 0 4.453-0.913 5.511-3.476l0.096-0.235h-2.475l-0.047 0.1c-0.72 1.507-2.467 1.67-3.184 1.67-1.602 0-3.377-0.986-3.626-2.817h9.525v-0.418c-3e-3 -4.295-3-5.824-5.805-5.824m15.099 6.546c0 0.728-0.395 1.395-1.112 1.878-0.716 0.483-1.684 0.748-2.725 0.748-1.304 0-2.18-0.565-2.18-1.408-1e-3 -0.87 0.58-1.269 2.141-1.466l2.18-0.266c0.797-0.099 1.334-0.2 1.695-0.406v0.92zm3.497 2.44a3.617 3.617 0 0 1-0.64 0.072c-0.5 0-0.695-0.192-0.696-0.684v-5.367c0-2.617-3.025-3.007-4.826-3.007-3.291 0-4.94 1.15-5.186 3.618l-0.02 0.188h2.173l6e-3 -0.165c0.045-1.22 1.01-1.814 2.95-1.814 1.92 0 2.74 0.439 2.74 1.466 0 0.734-0.493 0.91-1.599 1.027l-2.2 0.23c-3.192 0.337-4.494 1.285-4.493 3.272 0 0.956 0.42 3.178 4.284 3.178 1.4 0 3.23-0.442 4.196-1.407 0.269 1.029 1.072 1.179 1.842 1.179 0.507 0 1.094-0.045 1.533-0.117l0.145-0.024v-1.687l-0.209 0.041zm20.209-5.176c-2e-3 -3.008-2.577-3.81-4.098-3.81-1.775 0-3.102 0.568-4.156 1.784-0.793-1.153-2.035-1.784-3.524-1.784-0.996 0-2.754 0.218-3.897 1.595v-1.242h-2.325v10.647h2.329l-3e-3 -6.109c0-0.893 0.33-1.638 0.956-2.154 0.574-0.473 1.373-0.733 2.252-0.733 1.051 0 2.304 0.395 2.305 2.278l3e-3 6.718h2.324v-6.404c0-0.846 0.316-1.507 0.945-1.963 0.559-0.406 1.362-0.63 2.26-0.63 1.051 0 2.304 0.396 2.305 2.279l4e-3 6.718h2.32z"/>
   <path d="m31.281 44.277c-5.187 0-9.867-2.091-13.312-5.485h5.351s15.378-27.401 15.432-27.51c0.075-0.112 0.037-0.185-0.07-0.185h-6.276c-0.127 0-0.146 0.038-0.181 0.092-0.037 0.055-8.67 15.26-8.67 15.26h-11.28a18.377 18.377 0 0 1-0.053-1.449c0-10.638 8.522-19.278 19.06-19.278 5.367 0 10.228 2.257 13.692 5.889-1.504 2.568-8.252 14.158-9.158 15.846-0.526-1.23-2.957-0.99-4.208-1.01-0.545 0.917-3.1 5.797-3.1 5.797s1.412-0.018 2.682 0c1.234 0.02 1.38 1.32 0.89 2.146-0.491 0.826-2.505 4.4-2.505 4.4h6.476s7.945-14.03 12.46-22.007a19.19 19.19 0 0 1 1.829 8.217c0 10.639-8.54 19.276-19.06 19.276m-17.662-12.031h6.582l-3.175 5.557a19.977 19.977 0 0 1-3.408-5.557m17.663-32.245c-13.656 0-24.717 11.19-24.717 25.001 0 0.494 0.016 0.97 0.035 1.448h-3.228c-0.181 0-0.272 0.11-0.345 0.24-0.054 0.128-2.92 5.227-2.993 5.355-0.054 0.128-0.054 0.201 0.092 0.201h7.49c3.064 10.27 12.496 17.755 23.666 17.755 13.658 0 24.72-11.19 24.72-24.999 0-13.812-11.062-25.001-24.719-25.001" fill="#e6002d"/>
   <path d="m88.984 31.935c0.04 0 0.08-2e-3 0.116-5e-3a0.288 0.288 0 0 0 0.097-0.022 0.153 0.153 0 0 0 0.067-0.058 0.2 0.2 0 0 0 0.026-0.108c0-0.04-8e-3 -0.07-0.023-0.094a0.152 0.152 0 0 0-0.058-0.054 0.253 0.253 0 0 0-0.083-0.025 0.666 0.666 0 0 0-0.092-7e-3h-0.239v0.373h0.19zm0.08-0.52c0.138 0 0.24 0.028 0.307 0.083s0.1 0.14 0.1 0.252c0 0.105-0.03 0.182-0.088 0.231a0.394 0.394 0 0 1-0.218 0.088l0.332 0.516h-0.194l-0.316-0.504h-0.192v0.504h-0.18v-1.17zm-0.821 0.922a0.808 0.808 0 0 0 1.34 0.272 0.843 0.843 0 0 0 0.174-0.272 0.914 0.914 0 0 0 0.062-0.341c0-0.12-0.02-0.231-0.062-0.335a0.827 0.827 0 0 0-0.433-0.448 0.787 0.787 0 0 0-0.321-0.066 0.809 0.809 0 0 0-0.76 0.514 0.895 0.895 0 0 0-0.062 0.335c0 0.123 0.02 0.237 0.062 0.341zm-0.163-0.735a1 1 0 0 1 1.308-0.525 0.992 0.992 0 0 1 0.612 0.919 0.991 0.991 0 0 1-0.295 0.719 0.994 0.994 0 0 1-0.702 0.285 1.004 1.004 0 0 1-0.707-0.285 1.008 1.008 0 0 1-0.216-1.113z"/>
  </g>
 </g>
</svg>
