<svg xmlns="http://www.w3.org/2000/svg" viewBox="0 0 300 90">
<style type="text/css">
	.st0{fill:#FF8000;}
</style>
<path d="M157.91,43c0,1.2-.53,2.07-2.17,2.07H145.27c-1.35,0-2.12-.39-2.12-1.64s.53-1.87,2.12-1.87h12.64Zm46.17-5V36.65c0-1.25.53-2.07,2.22-2.07h10.47c1.44,0,2.16.43,2.16,1.78,0,1.15-.57,1.68-2.06,1.68Zm27.49-9.27v22.1h10.59V34.78h8.64c2.94,0,4.43.92,4.43,3.75V50.88H265.8V37.66c0-6.2-3.42-8.89-13.07-8.89Zm-26,0c-8.51,0-11.92,2.83-11.92,9.22v4.38c0,5.52,3.41,8.5,11.1,8.5H227.1V45.06H206.82c-2,0-2.69-.58-2.69-2.07v-.91h16c5.52,0,8.64-1.73,8.64-5.86v-1c0-3.75-1.87-6.44-11.24-6.44Zm-34,22.1h10.57V36.36c0-1,.39-1.59,1.69-1.59H192v-6H180.25c-6.3,0-8.7,2.35-8.7,6.29Zm-36.13-22.1v5.82h19.85c2,0,2.65.68,2.65,2.12v.85H142c-6.68,0-8.69,2.75-8.69,6.25v.86c0,4.86,3.89,6.2,11.53,6.2h11.73c8.31,0,11.91-1.87,11.91-8.41V37.32c0-5.53-3.41-8.55-11.14-8.55ZM72.18,41.07c0,7,3.55,9.8,12.73,9.8h20.14v-6H86.45c-2.21,0-3.7-1-3.7-4.18V38.81c0-2.84,1.39-4,3.65-4h18.65v-6H84.62c-9,0-12.44,3.79-12.44,9.85Zm36-15.81V50.87h23v-6h-12.4V25.26Zm-66,14.32V25.26h-6c-3.7,0-5.81,1.48-8,3.22L0,50.87H12.73L31.48,35.69V50.87h8.79L58.43,35.59V50.87H69.2V25.26H63.33c-3.17,0-5.38,1.3-7.59,3.12Z"/>
<path class="st0" d="M291.22,6.66c-5.9,0-14.21,1.76-23.22,5.06a117.85,117.85,0,0,0-23,11.33A66.15,66.15,0,0,1,266.64,19c10.34,0,17.7,4,6.83,17.83,32-21,31.17-30.12,17.75-30.12"/>
<path d="M58.92,73h6.56v1.93H61v2.28H65v1.94H61v4H58.92Z"/>
<path d="M73.43,78.17V78c0-3.06,1.92-5.2,4.62-5.2s4.6,2.12,4.6,5.17v.17c0,3-1.93,5.2-4.62,5.2S73.43,81.21,73.43,78.17Zm7,0V78c0-2-1-3.27-2.43-3.27S75.6,76,75.6,78v.1c0,2,1,3.28,2.45,3.28s2.41-1.26,2.41-3.26Z"/>
<path d="M91.42,73h3.83A3.79,3.79,0,0,1,98,74a3.19,3.19,0,0,1,.86,2.36v0a3.08,3.08,0,0,1-1.89,3l2.17,3.78H96.73l-1.88-3.35H93.53v3.35H91.41Zm3.67,5a1.47,1.47,0,0,0,1.66-1.53h0c0-1-.63-1.53-1.7-1.53H93.54V78Z"/>
<path d="M107.67,73h2.21l2.27,4.13L114.4,73h2.22V83.16h-2.07v-6.5l-2.4,4.2h0l-2.39-4.17v6.47h-2Z"/>
<path d="M125.73,79.2V73h2.12v6.24c0,1.44.68,2.15,1.77,2.15s1.78-.7,1.78-2.11V73h2.09v6.18c0,2.81-1.54,4.17-3.9,4.17S125.73,82,125.73,79.2Z"/>
<path d="M142.6,73h2.11v8.25h4.12v1.94H142.6Z"/>
<path d="M160.5,72.92h2l3.66,10.24H164L163.22,81h-3.5L159,83.16h-2.11Zm2.08,6.17-1.11-3.32-1.12,3.32Z"/>
<path d="M186.41,75.07l-1.55.42-.34-1.83L187,72.9h1.46V83.16h-2.08Z"/>
<path d="M210.41,74.93h-2.56V73h7.22v2H212.5v8.23h-2.09Z"/>
<path d="M223.44,73H230v1.9h-4.45v2.2h3.93V79h-3.93v2.27h4.52v1.91h-6.62Z"/>
<path d="M241.84,72.92h2l3.65,10.24h-2.18L244.57,81h-3.51l-.74,2.21H238.2Zm2.08,6.17-1.1-3.32-1.12,3.32Z"/>
<path d="M255.81,73H258l2.27,4.13L262.54,73h2.23V83.16H262.7v-6.5l-2.4,4.2h0l-2.39-4.17v6.47h-2.06Z"/>
</svg>