<svg id="Layer_1" data-name="Layer 1" xmlns="http://www.w3.org/2000/svg" xmlns:xlink="http://www.w3.org/1999/xlink" width="311.83" height="146.95" viewBox="0 0 311.83 146.95"><defs><linearGradient id="linear-gradient" x1="384.01" y1="334.37" x2="384.01" y2="312.05" gradientTransform="matrix(1, 0, 0, -1, 0, 770)" gradientUnits="userSpaceOnUse"><stop offset="0" stop-color="#8c8c8b"/><stop offset="0.5" stop-color="#9b9b9a"/><stop offset="0.66" stop-color="#868686"/><stop offset="1" stop-color="#4d4d4c"/></linearGradient><linearGradient id="linear-gradient-2" x1="239.04" y1="319.28" x2="567.96" y2="319.28" gradientTransform="matrix(0.95, 0, 0, -0.95, 1.48, 727.15)" gradientUnits="userSpaceOnUse"><stop offset="0" stop-color="#b2b2b2"/><stop offset="0.5" stop-color="#575756"/><stop offset="0.64" stop-color="#6e6e6d"/><stop offset="0.93" stop-color="#a5a5a4"/><stop offset="1" stop-color="#b2b2b2"/></linearGradient><linearGradient id="linear-gradient-3" x1="384" y1="459.48" x2="384" y2="418.92" xlink:href="#linear-gradient"/></defs><title>Oracle Red Bull Racing logo - Brandlogos.net</title><path d="M253.91,442.64c0-4.05-2.84-6.5-7.6-6.55H228.09v21.38h3.09v-7.79H246c2.66,0,4.26,1.33,4.26,3.56v4.23h3.15v-4.2a5.16,5.16,0,0,0-3.23-5A5.79,5.79,0,0,0,253.91,442.64Zm-7.58,4.23H231.18v-8h15.15c4.14,0,4.46,3.05,4.46,4S250.47,446.87,246.33,446.87Zm61.89-6.57c-1.58-3.19-3.38-4.49-6.22-4.49s-4.72,1.34-6.24,4.49l-8.12,16.63-.26.53h3.32l.1-.21,2.89-5.92h16.6l2.89,5.92.1.21h3.35l-.26-.53Zm-13.12,8.22,3.61-7.38c.85-1.76,1.8-2.48,3.29-2.48s2.41.72,3.27,2.48l3.61,7.38ZM349,446.78c0,7.23,3.14,10.63,9.9,10.69h16.74v-3H359.14c-5.08,0-7-2.08-7-7.66s1.89-7.67,7-7.67h16.54v-3H358.94C352.08,436.16,349,439.45,349,446.78Zm61.68,10.68h3.08V436.08h-3.08Zm63.82-3.08c-2.94,0-3.65-1-9-8.14l-.24-.32c-5.77-7.72-7.32-9.79-12.36-9.84H450.4v21.38h3.05V439.18c2.78,0,3.48.91,8.72,7.77l.65.84c5.81,7.6,7.38,9.64,12.24,9.68h2.55V436.09h-3.06v18.3Zm62.28-7.94v8H523.24c-5.08,0-7-2.09-7-7.69s1.89-7.64,7-7.64H539.7v-3H523c-6.75.06-9.89,3.45-9.89,10.66s3.14,10.65,9.9,10.72h16.86v-11h-3.1Z" transform="translate(-228.08 -310.52)" style="fill:url(#linear-gradient)"/><path d="M308,422.88h-3.17c-34.93,0-76.79.74-76.79,1.3s34.56,1.89,76.8,1.89H463.12c34.93,0,76.79-.74,76.79-1.3s-34.56-1.89-76.8-1.89H308Z" transform="translate(-228.08 -310.52)" style="fill:url(#linear-gradient-2)"/><path d="M362.4,384.21v13.18a4.19,4.19,0,0,1-8.36,0V384.21h-7.26v14.59c0,4.94,5.11,8.94,11.41,8.94s11.41-4,11.41-8.94V384.22ZM386,368.54v38.38h7.31V368.54Zm-12.36,38.38h7.31V368.54h-7.31ZM337.83,387a9.73,9.73,0,0,0,3.22-7.12,9.56,9.56,0,0,0-2.63-6.57c-1.74-1.92-4.83-3-9-3h-12.5v36.62h16.14c6.19-.1,11.17-4.77,11.17-10.5C344.23,392.24,342.76,389.27,337.83,387Zm-6.12,13.58h-7v-24h4.88a4.08,4.08,0,0,1,3.88,4.1,3.88,3.88,0,0,1-3.88,3.88h-2.54v6.58h4.66a4.71,4.71,0,0,1,0,9.41Z" transform="translate(-228.08 -310.52)" style="fill:#e2071f"/><path d="M252.48,381.12a10.92,10.92,0,0,0-11-10.82H228.09v36.62h7.78V376.59h4a4.88,4.88,0,0,1,5.06,4.79,5,5,0,0,1-5.2,4.79h-1.81v8.76l7.77,12h9.17l-10.74-15.3A10.86,10.86,0,0,0,252.48,381.12Zm13.6,2.15a12.24,12.24,0,0,0,0,24.47c5.1,0,9.07-2.31,11.12-5.92l-5.94-2.74a5,5,0,0,1-4.58,2.78,4.78,4.78,0,0,1-5-4.56V397h16.11c0-.5.07-1,.07-1.54C278,387.6,272.76,383.27,266.08,383.27Zm-4.4,9.59a4.47,4.47,0,0,1,8.94,0Zm45.24,14.07V368.54h-7.29V386.7a10.41,10.41,0,0,0-7.35-3.08c-6,0-10.93,5.36-10.93,12s4.89,12,10.93,12a10.38,10.38,0,0,0,7.38-3.17v2.55Zm-12.57-5.62a5.89,5.89,0,1,1,5.37-5.87A5.64,5.64,0,0,1,294.35,401.3Z" transform="translate(-228.08 -310.52)" style="fill:#e2071f"/><circle cx="245.95" cy="76.48" r="24.98" style="fill:#ffd800"/><path d="M539.55,403.73h0a1.65,1.65,0,0,1-.09-.21c0-.13,0-.29-.07-.45v0a4.41,4.41,0,0,0-.27-1.2,2.12,2.12,0,0,0-1.52-1.2,1.62,1.62,0,0,0-.24-.58,5.09,5.09,0,0,0-1.51-1.32l-.33-.23-.13-.1a1.72,1.72,0,0,0-1.07-.37,2.41,2.41,0,0,0-1.76.94c-.07-.19-.19-.63-.26-.88s-.18-.67-.27-.92v0l0-.11a2.38,2.38,0,0,0-1.78-1.74,8.13,8.13,0,0,0-.94-.08,2.08,2.08,0,0,1-.89-.16c0-.05,0-.13.1-.26a6.33,6.33,0,0,0,.25-.73,7,7,0,0,0,.22-3.11,6.59,6.59,0,0,0,.91.07,7.53,7.53,0,0,0,2.93-.6l0,0a5.9,5.9,0,0,0,3.43-5.3V385c-.2-2.13-1.39-4.15-3.62-6.14a5.34,5.34,0,0,0,1.76-.74,5,5,0,0,0,1.91-5.32l0-.15a1.41,1.41,0,0,0-1.38-1.27,1.36,1.36,0,0,0-.94.38l-.17.16a3.07,3.07,0,0,1-.41.35,5,5,0,0,1-1.38.42,10.79,10.79,0,0,0-1.3.33c-2,.69-3.26,1.77-3.75,3.2a3.62,3.62,0,0,0,.36,2.89l0,.07a14,14,0,0,0,2.23,2.52c1.08,1,2.09,2,2.3,3.18,0,.21.1.61-.61,1.14a2.28,2.28,0,0,1-1.11.24,4.26,4.26,0,0,1-1.91-.48l0,0a25.45,25.45,0,0,1-2.63-1.61,18.33,18.33,0,0,0-4.49-2.43,11.36,11.36,0,0,0-2.31-.65,5.74,5.74,0,0,1-2.39-.84l-.09-.06c-.27-.17-.54-.37-.8-.56a8.64,8.64,0,0,0-2.81-1.53,5.92,5.92,0,0,0-1.15-.24,2,2,0,0,1-.83-.22l-.54-.39,0,0a16.88,16.88,0,0,0-2.35-1.53,18.19,18.19,0,0,0-4.38-1.38c-.08,0-.29-.28-.44-.45a4.69,4.69,0,0,0-.92-.92,6.8,6.8,0,0,0-4.29-1.77l-.46,0a4.56,4.56,0,0,0-2.58,1.29c-1.31,1.15-2.74,2.18-4.12,3.18a40.21,40.21,0,0,0-6.28,5.25c-2,2.09-2.76,4.7-3.41,7-.09.33-.19.66-.29,1-.18.63-.34,1.28-.49,1.91-.79,3.19-1.54,6.2-4.52,8.14a1.48,1.48,0,0,0-.68,1.41,1.52,1.52,0,0,0,1,1.25,3.42,3.42,0,0,0,1.14.18,1.44,1.44,0,0,0,.36.88,1.73,1.73,0,0,0,1.29.57h.05a6.85,6.85,0,0,0,4.77-2.4,3.84,3.84,0,0,0,1.76,1l.2,0,.22,0a11.61,11.61,0,0,1,2.06-.16c.6.19,1.22.42,1.83.65s1,.36,1.45.53l.24.08h.21a3.12,3.12,0,0,0,2.38-1.68l0-.09,0-.09a2,2,0,0,0,.11-.32h0l.08.28a4.76,4.76,0,0,0,.76,1.75,1.93,1.93,0,0,0,1.49.68h0a4.16,4.16,0,0,0,.57-.05H497l.06.07a2.63,2.63,0,0,0,1.17.81c.55.18,1.1.33,1.64.47a17.62,17.62,0,0,1,2,.59l.07,0a4.71,4.71,0,0,0,1.57.3,2.74,2.74,0,0,0,1.86-.71,3.4,3.4,0,0,0,1.2-1.88l.4-.1c.91-.3,1.81-2,1.81-2a3.19,3.19,0,0,1,.2-.33,1.8,1.8,0,0,0,.33-1.07,1.6,1.6,0,0,0-1.58-1.59h-.14c-.07,0-1.79,0-2.28,0h0a2.13,2.13,0,0,0-.59.11l0,0c-.13-.16-.27-.53-.46-.62l.07,0,.48.05c.31,0,.62.05.93.05a17.12,17.12,0,0,0,3-.35,14.49,14.49,0,0,1,2.55-.07h.31a11.42,11.42,0,0,1,1.14.07,13.19,13.19,0,0,0,1.32.08l.48,0a5,5,0,0,0,1.26-.22l.15.8.06.27a5.11,5.11,0,0,0,2.28,3.53l.26.17a5.2,5.2,0,0,0,2.48,1,4,4,0,0,0,1.24-.05,5.76,5.76,0,0,1,4.54,1.05l.12.08a2.92,2.92,0,0,1,.41.32,4.14,4.14,0,0,0,1.21.78,3.25,3.25,0,0,0,1.09.21h0a2.71,2.71,0,0,0,1.44-.39h0a2.43,2.43,0,0,1,.14.2,5.61,5.61,0,0,0,.86,1,3.13,3.13,0,0,0,2.26.78c.29,0,.57,0,.82,0l.28,0,.44,0c.18,0,.3-.05.36-.06a1.45,1.45,0,0,0,.81.27,1.21,1.21,0,0,0,.38-.06l1.43-.47a1.47,1.47,0,0,0,.9-.79A2.25,2.25,0,0,0,539.55,403.73Zm-45.07-7.09-.11-.16c0-.07-.09-.13-.15-.22a4.58,4.58,0,0,1-.49-.84c.43,0,.88.09,1.36.11Z" transform="translate(-228.08 -310.52)" style="fill:#ffd800"/><path d="M473.23,398.52l-.75-.37a5.17,5.17,0,0,1-1.54-1.89c-.22-.36-.44-.74-.68-1.08a4.61,4.61,0,0,0-.83-.87l-.16-.14a28.21,28.21,0,0,1-1.87-7.6,7.5,7.5,0,0,0-.91-2.67l0,0a57.24,57.24,0,0,0-4.43-5.73c-.11-.12-.23-.24-.34-.34l-.08-.08-5.3-4.41-.08-.06a8.45,8.45,0,0,0-2.39-1.28,6.8,6.8,0,0,0-4.62.16l-.09,0c-.46.24-.89.52-1.3.78a8.75,8.75,0,0,1-1.84,1l-.11,0a14,14,0,0,1-1.69.59,9.69,9.69,0,0,0-3.85,1.9l-.72.67c-.28.27-.55.52-.66.6h-.23a7.18,7.18,0,0,0-4.93,1.72l-.05,0a8.78,8.78,0,0,1-2.71,1.9,6.44,6.44,0,0,1-1.4.24h-.05a10.45,10.45,0,0,0-1.94.3,11.63,11.63,0,0,0-4.14,2.4c-.52.4-.86.66-1,.75l-.33.21a7.53,7.53,0,0,1-3.74,1.41h-.07a2,2,0,0,1-1.66-1.23,2.46,2.46,0,0,1,.73-2.4c.45-.45,1-.9,1.49-1.33a14.65,14.65,0,0,0,2.41-2.37,3.86,3.86,0,0,0-.23-4.7,7.21,7.21,0,0,0-3.58-1.71l-.1,0-.22,0h-.07l-.4-.07-.66-.13a5,5,0,0,1-1.29-.72,11.15,11.15,0,0,0-1-.65l-1-.53-.61.94a3.8,3.8,0,0,0-.59,2.43v.07a5.66,5.66,0,0,0,3.14,4.14l0,0,.17.07a3.73,3.73,0,0,0,1.08.25,18.53,18.53,0,0,0-2.5,2.44,6.2,6.2,0,0,0-.89,6.06,6.43,6.43,0,0,0,5.16,3.88,7.07,7.07,0,0,0,1,.08,9,9,0,0,0,1.75-.19v0a16.75,16.75,0,0,0,.13,1.77,11.78,11.78,0,0,0,.69,2.08s0,0,0,.05a6.43,6.43,0,0,1-1.32.6c-.34,0-.72.06-1,.08l-.42,0a1.8,1.8,0,0,0-1.07.51,4.88,4.88,0,0,0-.91,1.74c-.12.32-.25.65-.38.92a1.85,1.85,0,0,1-.41.43,3.06,3.06,0,0,0-.78-.84h0l0,0a1.73,1.73,0,0,0-2,0l-.27.18-.07.05a12.55,12.55,0,0,0-1.28.93,2,2,0,0,0-.62,1.06,1.67,1.67,0,0,0-.32.08,2.69,2.69,0,0,0-1.6,2,7.74,7.74,0,0,1-.11,1l-.07.09a1.6,1.6,0,0,0,0,2.15,6,6,0,0,0,2.38.86h.08l.2,0,.09,0,.28-.11.38,0a6.91,6.91,0,0,1,.71.13,7,7,0,0,0,1.44.2,3.15,3.15,0,0,0,1.53-.37,3.68,3.68,0,0,0,1.54-1.62c.09-.15.17-.3.26-.42l.13,0a4,4,0,0,0,.81.15,4.85,4.85,0,0,0,3.07-1.13c.23-.18.44-.38.64-.56a7.3,7.3,0,0,1,.64-.55,2.29,2.29,0,0,1,.82-.12,10.08,10.08,0,0,1,1.77.22,4.64,4.64,0,0,0,3.36-.38c.51-.29,1-.55,1.43-.77l.07,0,.58-.31a5.91,5.91,0,0,0,2.11-2.53c.21-.43.54-1.22.63-1.44H434a12.06,12.06,0,0,0,1.85-.19c.4-.06.77-.12,1.06-.14h.39c.58,0,1.41.07,2,.14s.88.11,1.57.14l.3,0c.22,0,.47,0,.74,0a3.93,3.93,0,0,0,1.75-.4c.13.13.35.44.5.57h-.07a1.55,1.55,0,0,0-1.15.49,3.51,3.51,0,0,0-1.63-.14,15.82,15.82,0,0,0-2,.31,1.47,1.47,0,0,0-1.12.84,1.71,1.71,0,0,0,.08,1.54c.36.65.71,1.23,1.08,1.85l.16.27a1.62,1.62,0,0,0,1.47.76l.36,0h0l.07.12a4.75,4.75,0,0,0,1.19,1.54,3.48,3.48,0,0,0,2.26.8,3.86,3.86,0,0,0,1.08-.16,29,29,0,0,0,4.68-1.8H451l.3,0a3.14,3.14,0,0,0,2.24-.86l.07-.07.05-.08c.28-.4.53-.81.77-1.22a.83.83,0,0,0,0,.15v0a2.44,2.44,0,0,0,2.36,1.53h.05a9,9,0,0,0,2.73-.66l.05,0,.34-.12.08,0a4.77,4.77,0,0,1,2.54-.13l.14,0h.14a4.67,4.67,0,0,0,2.69-1.19,6.76,6.76,0,0,0,5.09,2.14h.23l.33,0,.09,0a1.47,1.47,0,0,0,1.17-1.32,1.6,1.6,0,0,0,0-.38,2.25,2.25,0,0,0,.36-.06,1.51,1.51,0,0,0,1.19-1.24A1.48,1.48,0,0,0,473.23,398.52Zm-17.51-3.36-.18.16a6.67,6.67,0,0,0-1.09,1.18c-.24-.4-.4-.69-.53-1a5.93,5.93,0,0,0,1.53-.44h.28A.09.09,0,0,1,455.73,395.16Z" transform="translate(-228.08 -310.52)" style="fill:#ffd800"/><path d="M411.06,401.7H411a1.57,1.57,0,0,0-.85,1c-.1,1.3-.13,1.44-.49,1.84-.1.11-.17.37-.05.48a8,8,0,0,0,1.52.51h0c.12,0,.21-.33.47-1.23.14-.48.3-1,.47-1.53,0,0,0-.08-.1-.25S411.34,401.7,411.06,401.7Zm1.42,0a.74.74,0,0,0,.48.19.89.89,0,0,0,.4-.11,5,5,0,0,0,1.5-1.79c.08-.22-.17-.42-.49-.67l0,0a.5.5,0,0,0-.56,0l-.35.24a11,11,0,0,0-1.17.85.79.79,0,0,0-.24.54.47.47,0,0,0,.07.33A3.93,3.93,0,0,0,412.48,401.68Zm60.21-2.07-.79-.39a6,6,0,0,1-2-2.33c-.2-.34-.42-.7-.65-1a4.26,4.26,0,0,0-.63-.65,2,2,0,0,1-.42-.44,29.88,29.88,0,0,1-2-8.13,6.23,6.23,0,0,0-.75-2.15,56.39,56.39,0,0,0-4.28-5.54l-.31-.31-.08-.08-5.23-4.34a7,7,0,0,0-2.11-1.13,5,5,0,0,0-1.64-.27,5.44,5.44,0,0,0-2.09.4c-.42.22-.82.48-1.21.73a9.72,9.72,0,0,1-2.11,1.12,16.39,16.39,0,0,1-1.82.65,8.45,8.45,0,0,0-3.38,1.64l-.71.66c-.9.85-1,.93-1.73.93a6,6,0,0,0-4.16,1.44,9.65,9.65,0,0,1-3.13,2.15,7.26,7.26,0,0,1-1.69.3,9.19,9.19,0,0,0-1.83.28,10.91,10.91,0,0,0-3.67,2.17c-.36.28-.85.66-1.08.81l-.38.24a8.48,8.48,0,0,1-4.36,1.57h-.12a3.19,3.19,0,0,1-2.76-2.09,3.66,3.66,0,0,1,1-3.61c.48-.48,1-.95,1.56-1.4a13.91,13.91,0,0,0,2.22-2.17,2.66,2.66,0,0,0-.15-3.15,6.58,6.58,0,0,0-3-1.35l-.11,0-.23,0c-.39-.08-.76-.13-1.14-.22a13.47,13.47,0,0,1-2.58-1.48,2.65,2.65,0,0,0-.4,1.68,4.43,4.43,0,0,0,2.44,3.19l.15.06a2.93,2.93,0,0,0,1.15.19H417a3.34,3.34,0,0,1,.76.06.73.73,0,0,1,.51.58c0,.17-.06.31-.28.48l-.61.51a20.63,20.63,0,0,0-3,2.8,5,5,0,0,0-.67,4.85,5.19,5.19,0,0,0,4.19,3.1,6.11,6.11,0,0,0,.86.07,10.88,10.88,0,0,0,2.69-.44h.08s.11,0,.13.2c0,.38.05.82.06,1.24,0,.69.06,1.33.11,1.61a11,11,0,0,0,.62,1.84c.09.21.15.37.18.45a.74.74,0,0,1-.18.75,6.08,6.08,0,0,1-2.23,1.11c-.39.05-.81.07-1.12.09l-.34,0a.61.61,0,0,0-.37.17,5,5,0,0,0-.63,1.31c-.14.37-.29.74-.44,1.06a4.7,4.7,0,0,1-1.79,1.49l-.5.3,0,0a5.47,5.47,0,0,1-.92,1.18,1.64,1.64,0,0,1-1,.36h0l0,0a4.61,4.61,0,0,0-.86,2.19c0,.12-.05.24-.08.36l0,.11h.07c.28,0,.56.09.85.15a6,6,0,0,0,1.18.17,2,2,0,0,0,1-.24,2.49,2.49,0,0,0,1-1.14,4.1,4.1,0,0,1,.59-.84.66.66,0,0,1,.54-.23,2.79,2.79,0,0,1,.62.11,3,3,0,0,0,.58.11,3.66,3.66,0,0,0,2.25-.87c.19-.15.38-.33.56-.5a6,6,0,0,1,.88-.73,3.24,3.24,0,0,1,1.4-.27,11.61,11.61,0,0,1,2,.25,4,4,0,0,0,1,.13,3.18,3.18,0,0,0,1.53-.37l1.46-.79.63-.34a5,5,0,0,0,1.61-2c.22-.44.6-1.38.6-1.39l0,0-.87-.66,0,.06a14.3,14.3,0,0,1-.94,1.38c-1.53,2.09-4,2.35-6,2.35h-.41a7.56,7.56,0,0,0-5.94,2.48.16.16,0,0,1-.24,0,.21.21,0,0,1,0-.18,1.33,1.33,0,0,1,.16-.41c1.55-2.2,4.2-2.53,6.34-2.57a9.38,9.38,0,0,0,3.73-.89,5.81,5.81,0,0,0,2.6-3.24,15.41,15.41,0,0,0,.48-2.32,17.92,17.92,0,0,1,.34-1.83.2.2,0,0,1,.18-.13H432c.08,0,.23.07.24.19a8,8,0,0,0,0,4.26,1.63,1.63,0,0,0,1.68.81,10.66,10.66,0,0,0,1.66-.18c.43-.07.84-.13,1.19-.15l.45,0a10.24,10.24,0,0,1,2,.27,12.5,12.5,0,0,0,1.75.26l.34,0c.21,0,.42,0,.64,0a1.73,1.73,0,0,0,1.13-.31c.18-.15.12-.37,0-.66v-.05a1.42,1.42,0,0,0-.05-.16c-.12-.38-.29-.94,0-1.2a.28.28,0,0,1,.16-.05.14.14,0,0,1,.14.09c0,.11.06.22.1.33a4.11,4.11,0,0,0,.55,1.32,8.35,8.35,0,0,0,2.72,2.13,3.66,3.66,0,0,1,1.74,2.61c0,.55-.54.94-.93,1.18a5.69,5.69,0,0,1-2.21.66,1.42,1.42,0,0,1-.76-.3c-.61-.56-.54-.76-.94-1.42a7.75,7.75,0,0,0-.71-1.05,1.7,1.7,0,0,0-1.51-.53,15.31,15.31,0,0,0-1.88.31.42.42,0,0,0-.31.24.49.49,0,0,0,0,.45c.35.63.7,1.21,1.06,1.82l.16.27a.46.46,0,0,0,.43.17h.58a.74.74,0,0,1,.65.24c.11.17.21.35.3.52a3.57,3.57,0,0,0,.9,1.19,2.28,2.28,0,0,0,1.48.52,2.46,2.46,0,0,0,.72-.11,26.87,26.87,0,0,0,4.75-1.85h.5l.33,0a2.09,2.09,0,0,0,1.45-.48,17,17,0,0,0,1.27-2.17,1.87,1.87,0,0,0,0-1.85,12.63,12.63,0,0,1-1.53-3v0h0l-.34-.12a2.13,2.13,0,0,0-.77-.19h0c-.33,0-.56.11-.65.3v0l1.75,3.46a1.57,1.57,0,0,1,.17.95,6.11,6.11,0,0,1-1.19,1.93.29.29,0,0,1-.15.06s-.11,0-.05-.22a9,9,0,0,0,.31-2.31,22,22,0,0,0-1.59-3l0,0a2.13,2.13,0,0,1-.44-1.2.47.47,0,0,1,.33-.4,5.28,5.28,0,0,1,.76-.19c.62-.14,1.27-.28,1.5-.63a9.5,9.5,0,0,0,1.4-3.72c0-.07.06-.2.16-.2s.11,0,.14.15a5.6,5.6,0,0,1-1,4.21.44.44,0,0,0-.06.33.42.42,0,0,0,.16.22,3.37,3.37,0,0,0,2.46-.37,10.11,10.11,0,0,0,1.94-.22l.59-.11a.29.29,0,0,1,.12.13,4.32,4.32,0,0,0-1,2.08c-.14.15-.31.3-.46.44a3,3,0,0,0-1.22,1.86.27.27,0,0,0,.27.29.67.67,0,0,0,.29-.08.79.79,0,0,1,.3-.08.21.21,0,0,1,.17.18l-.65,1a1.51,1.51,0,0,0,0,1.23c.07.23,0,.4.1.6a1.25,1.25,0,0,0,1.21.7,8.08,8.08,0,0,0,2.37-.59l.4-.14a5.84,5.84,0,0,1,3.22-.21,4.53,4.53,0,0,0,2.6-1.43,1.53,1.53,0,0,1,1,.57,5.49,5.49,0,0,0,4.25,1.81H471c.18,0,.23-.13.24-.24s-.09-.27-.29-.36l-1-.51a4.05,4.05,0,0,1-1.85-1.86,10.4,10.4,0,0,0-1.06-2.24c-.07-.11-.14-.22-.22-.33a4.39,4.39,0,0,1-.38-.61h0a4.52,4.52,0,0,1,2.35,2.45,4.12,4.12,0,0,0,3.21,2,2.73,2.73,0,0,0,.5-.05.3.3,0,0,0,.25-.24A.18.18,0,0,0,472.7,399.62ZM453.9,384c0,.1-.09.17-.16.17s-.1,0-.13-.15a10.41,10.41,0,0,0-.76-2.73,3.24,3.24,0,0,0-.34-.53c-.23-.32-.44-.6-.21-1a.49.49,0,0,1,.42-.18.7.7,0,0,1,.25.05,2.06,2.06,0,0,1,.8,1A5.51,5.51,0,0,1,453.9,384ZM462.67,398a1,1,0,0,1-.23.56,2.42,2.42,0,0,1-1.2.25c-.35,0-.47-.06-.54-.17s.05-.36.05-.36a2.19,2.19,0,0,1,1.28-1.16.7.7,0,0,1,.52,0C462.81,397.24,462.7,397.87,462.67,398Zm2.4-5.49a1.74,1.74,0,0,1-.17.56.38.38,0,0,1-.36.25c-.26,0-.24-.31-.25-.35a4.42,4.42,0,0,0-.2-1.22c-.18-.39-1-1.5-1.54-1.46a1.39,1.39,0,0,0-.69.52c-.29.38-.29.43-.38.48s-.21,0-.25-.2a1.71,1.71,0,0,1,0-.84,3.65,3.65,0,0,1,.34-.83s.26-.6.36-.75a.74.74,0,0,1,.63-.38.88.88,0,0,1,.74.38,2.92,2.92,0,0,1,.41.61,4,4,0,0,0,.54.69,3.71,3.71,0,0,1,.76,1.44A3,3,0,0,1,465.07,392.48Zm-20.68,7a5.35,5.35,0,0,1,.39.76c.2.44.37.81.57.88a.82.82,0,0,0,.28,0,2.84,2.84,0,0,0,1.54-.6c.26-.22.17-.36.06-.55a1.45,1.45,0,0,1-.12-.22,4.66,4.66,0,0,1-.26-.7c-.13-.44-.23-.81-.7-.75a13.66,13.66,0,0,1-2.05.14s-.24,0-.31.16.1.35.3.53A1.77,1.77,0,0,1,444.4,399.48Z" transform="translate(-228.08 -310.52)" style="fill:#e2071f"/><path d="M538.45,404.25a1.84,1.84,0,0,1-.17-.42c0-.2-.07-.41-.1-.61a3.5,3.5,0,0,0-.18-.88.89.89,0,0,0-.79-.51.8.8,0,0,0-.33.08c-.49.25-.78.51-.7,1.06a20.11,20.11,0,0,1,.58,2.18c0,.12.1.52.29.52h0l1.41-.46a.24.24,0,0,0,.15-.13C538.74,404.87,538.59,404.56,538.45,404.25Zm-2.09-3.48a4.29,4.29,0,0,0-1.17-1c-.18-.12-.34-.23-.45-.32l-.08-.06a.47.47,0,0,0-.32-.12,1.19,1.19,0,0,0-.94.72c0,.27.37.75.87,1.34l.11.13a1.25,1.25,0,0,0,.82.49h0a1.07,1.07,0,0,0,.77-.33C536.14,401.45,536.55,401,536.36,400.77Zm-33.06-2a6.78,6.78,0,0,1-.77.05h-.69a2.67,2.67,0,0,0-.42,0h0v0a3.17,3.17,0,0,0-.45,1.45c.07.59.67.71,1.13.8a2.94,2.94,0,0,0,.54.07.65.65,0,0,0,.65-.33,8.65,8.65,0,0,0,.51-1.82.18.18,0,0,0,0-.17.45.45,0,0,0-.32-.11Zm32,4.15,0,0h0c-.81.05-1.32-.61-1.81-1.25a5.69,5.69,0,0,0-.48-.58,7.89,7.89,0,0,0-.78-.76,2.68,2.68,0,0,1-.63-.67,7.61,7.61,0,0,1-.36-1.15c-.09-.32-.17-.62-.24-.83,0,0,0-.08,0-.13-.15-.39-.33-.88-.84-1a7,7,0,0,0-.8-.06,2.31,2.31,0,0,1-1.86-.69,1.33,1.33,0,0,1,0-1.42,3.74,3.74,0,0,0,.2-.59,5.62,5.62,0,0,0,.15-2.77c0-.12-.07-.25-.11-.37a1.94,1.94,0,0,1-.15-1,.3.3,0,0,1,.31-.18,1.63,1.63,0,0,1,.42.08l.27.07a5.86,5.86,0,0,0,3.85-.31,4.65,4.65,0,0,0,2.74-4.16c-.19-1.95-1.39-3.83-3.68-5.75l-.17-.14c-.3-.25-.66-.55-.67-.83s.7-.44,1.15-.55l.28-.07.12,0a5,5,0,0,0,1.64-.64,4,4,0,0,0,1.39-4.1.3.3,0,0,1,0-.1c0-.14-.07-.31-.2-.31a.17.17,0,0,0-.12.06l-.15.14a3.19,3.19,0,0,1-.64.51,5.44,5.44,0,0,1-1.75.56,9.22,9.22,0,0,0-1.15.29,4.34,4.34,0,0,0-3,2.45,2.43,2.43,0,0,0,.28,1.92,12.93,12.93,0,0,0,2,2.29c1.17,1.12,2.38,2.28,2.66,3.86a2.33,2.33,0,0,1-1.14,2.36,3.43,3.43,0,0,1-1.78.44,5.49,5.49,0,0,1-2.48-.62,27.83,27.83,0,0,1-2.76-1.68,17.72,17.72,0,0,0-4.25-2.31,9.74,9.74,0,0,0-2.11-.59,6.73,6.73,0,0,1-2.9-1.08c-.29-.19-.58-.4-.85-.6a7.62,7.62,0,0,0-2.44-1.35,5.93,5.93,0,0,0-1-.21,2.92,2.92,0,0,1-1.37-.44l-.58-.42a15.58,15.58,0,0,0-2.18-1.42,17.32,17.32,0,0,0-4.11-1.28,2.08,2.08,0,0,1-1.09-.86,3.19,3.19,0,0,0-.71-.71,5.6,5.6,0,0,0-3.56-1.53l-.38,0a3.62,3.62,0,0,0-1.87,1c-1.35,1.18-2.8,2.24-4.21,3.25a38.81,38.81,0,0,0-6.11,5.1c-1.82,1.88-2.48,4.22-3.12,6.49-.09.33-.19.67-.29,1-.17.62-.33,1.26-.48,1.88-.83,3.35-1.7,6.69-5,8.86a.28.28,0,0,0,.06.5,2.78,2.78,0,0,0,2.89-.9c.87-1,1.31-2,2.33-3.1,0,0,.15-.14.25-.12s.1.06.07.19a3.9,3.9,0,0,1-.65,1.18,4.68,4.68,0,0,0-.67,1.22,6.2,6.2,0,0,1-2,2.42.89.89,0,0,0-.2.17c-.07.09-.07.13-.07.13,0,.21.15.34.48.36h0c1.87,0,3.21-1.33,4.5-2.62a.27.27,0,0,1,.22-.08.41.41,0,0,1,.21,0,4.53,4.53,0,0,1,.44.37,3.21,3.21,0,0,0,1.42.88h0a13.15,13.15,0,0,1,1.93-.17l.51,0c.68.21,1.37.46,2,.71.47.18,1,.36,1.43.52h0c.62,0,1.07-.6,1.4-1.12a1.78,1.78,0,0,0,0-1.07,2.68,2.68,0,0,1-.07-.62.71.71,0,0,1,.44,0,2,2,0,0,0,.44,0,.38.38,0,0,0,.29-.46,4,4,0,0,0-.75-1.49,4.75,4.75,0,0,1-.66-1.23,4.74,4.74,0,0,0-1.07-1.51,3.84,3.84,0,0,1-1.09-1.68s0-.14,0-.19.18,0,.18,0c.22.16.45.35.67.53a5.12,5.12,0,0,0,2.34,1.31,14.25,14.25,0,0,0,2.63.11.35.35,0,0,0,.3-.44,13.59,13.59,0,0,1-.94-2.44,7.23,7.23,0,0,1-.18-3.72.21.21,0,0,1,.21-.17h0a.42.42,0,0,1,.26.34V388c.12,1.79.24,3.48,1.34,4.93a3,3,0,0,0,1.12.95,2.71,2.71,0,0,1,.8.57,1.12,1.12,0,0,1,.11,1.1l-1.34,2a4.44,4.44,0,0,0-.74,1.43,5.05,5.05,0,0,0,0,1.45v.11a.22.22,0,0,1-.1-.11,2.83,2.83,0,0,1-.38-2.45c.18-.41,1.27-2,1.59-2.47.1-.16.18-.33.1-.44a3.08,3.08,0,0,0-1.14-.49h0a.86.86,0,0,0-.43.39l-.07.11-1.66,3,0,.11a1.55,1.55,0,0,0-.1.91,13.21,13.21,0,0,0,.34,1.29c0,.1.06.2.08.3a3.92,3.92,0,0,0,.52,1.29.71.71,0,0,0,.57.25,2.58,2.58,0,0,0,.38,0,1.76,1.76,0,0,1,.6,0,1.29,1.29,0,0,1,.6.44,1.42,1.42,0,0,0,.65.48c.51.17,1,.31,1.57.45a20,20,0,0,1,2.09.63,4.13,4.13,0,0,0,1.2.24,1.54,1.54,0,0,0,1.1-.44,2.33,2.33,0,0,0,.85-1.49c.11-.57.3-.61.71-.63a1.08,1.08,0,0,0,.43-.07,4.12,4.12,0,0,0,1.12-1.4l.26-.44a.69.69,0,0,0,.13-.38.4.4,0,0,0-.41-.4h-.1s-1.77,0-2.25,0c-.73,0-1,.74-1.3,1.35a5.05,5.05,0,0,1-.31.66,1.1,1.1,0,0,1-1,.55,3.64,3.64,0,0,1-.59-.12c-1-.23-1.94-.48-2.34-1.42a.85.85,0,0,1,.14-.78,14.41,14.41,0,0,1,1.87-1.88,3.93,3.93,0,0,0,2.45-1.81,1.55,1.55,0,0,0,.22-.51,1.17,1.17,0,0,1,.41-.68c.16-.08.28-.05.31.08a2.74,2.74,0,0,1-.28,1.45l-.12.31,0,.08h.08a7.2,7.2,0,0,0,.81,0,16.23,16.23,0,0,0,2.83-.33,15.88,15.88,0,0,1,2.79-.33h.31c.43,0,.84,0,1.24.07A11.92,11.92,0,0,0,514,396h.41a2.41,2.41,0,0,0,2.39-1.5,9,9,0,0,0-.08-3.87,1.12,1.12,0,0,0,0-.15v0c0-.07,0-.14.09-.18s.24,0,.29.15a19.76,19.76,0,0,1,.88,3.84,8,8,0,0,0,1.29,3.11,4.7,4.7,0,0,0,4,2.07,9,9,0,0,0,1.15-.12,2.62,2.62,0,0,1,.54,0,6.55,6.55,0,0,1,5.27,2.62.09.09,0,0,1,0,.08.15.15,0,0,1-.2.1l-.18-.14a8.25,8.25,0,0,0-3.93-2.05,4.75,4.75,0,0,0-.86-.07,11,11,0,0,0-1.3.1,10.31,10.31,0,0,1-1.22.09,3.66,3.66,0,0,1-1.39-.25,6.94,6.94,0,0,1-3.66-3.87.22.22,0,0,0-.19-.12.3.3,0,0,0-.15.05c-.2.13-.24.2-.27.32a10,10,0,0,0,.22,1.4,4.13,4.13,0,0,0,1.81,3,4.6,4.6,0,0,0,2.26,1,2.9,2.9,0,0,0,.78,0,6.16,6.16,0,0,1,1.36-.15,7.11,7.11,0,0,1,4.17,1.4,4.11,4.11,0,0,1,.59.44,2.94,2.94,0,0,0,.87.58,2.09,2.09,0,0,0,.66.13,1.91,1.91,0,0,0,1.1-.37,1.11,1.11,0,0,1,.47-.12c.45,0,.7.35,1,.8a5.19,5.19,0,0,0,.7.84,2,2,0,0,0,1.42.45l.73,0c.23,0,.51,0,.66,0l.22,0v-.06A7.11,7.11,0,0,0,535.26,402.87Zm-47-4.2a.58.58,0,0,1-.54.23,1.15,1.15,0,0,1-.61-.17,1.45,1.45,0,0,1-.56-1.16.37.37,0,0,1,.15-.37.36.36,0,0,1,.23-.05,1.67,1.67,0,0,1,1.11.54S488.45,398.28,488.24,398.67Zm.46-7.4a.39.39,0,0,1-.48.18.93.93,0,0,1-.41-.44c-.12-.2-.21-.38-.48-.36h0a1.12,1.12,0,0,0-.61.29c-.1.08-.48.36-.58.45a3,3,0,0,0-1.18,1.52c0,.22,0,.22-.07.33a.78.78,0,0,1-.26.56h-.1a.35.35,0,0,1-.23-.09.25.25,0,0,1-.11-.21,3.2,3.2,0,0,1,1-2.71,8.57,8.57,0,0,0,1.25-1.38c.18-.24.37-.48.57-.71s.39,0,.8.42a8.56,8.56,0,0,1,.94,1.67A.57.57,0,0,1,488.7,391.27Zm8.83-12.39-.63.58a11.58,11.58,0,0,0-2,2.19,6.19,6.19,0,0,0-.59,1.07s-.06.12-.14.12a.16.16,0,0,1-.11-.05,3.08,3.08,0,0,1,.16-1.65,7.49,7.49,0,0,1,2.58-3.2.9.9,0,0,1,.45-.13.49.49,0,0,1,.48.29A.61.61,0,0,1,497.52,378.88Z" transform="translate(-228.08 -310.52)" style="fill:#e2071f"/><path d="M362.7,336.92h20.6l-10.88-17.57-20,31.72h-9.13L367.64,313a5.73,5.73,0,0,1,4.77-2.48,5.67,5.67,0,0,1,4.7,2.41l24.4,38.14h-9.1L388.12,344H367.26l-4.55-7.06M457.23,344V310.92h-7.74v36.32a3.74,3.74,0,0,0,1.14,2.66,3.91,3.91,0,0,0,2.81,1.18h35.18l4.58-7.09h-36m-127.75-5.92a13.58,13.58,0,0,0,0-27.15H295.69v40.16h7.72V318H329a6.5,6.5,0,0,1,0,13l-21.78,0,23.06,20.08h11.2l-15.49-13h3.52m-81.29,13h23.34a20.08,20.08,0,0,0,0-40.16H248.18a20.08,20.08,0,1,0,0,40.16M271,344h-22.3a13,13,0,0,1,0-26H271a13,13,0,1,1,0,26m146.63,7.07h23.83L446,344H418.15a13,13,0,1,1,0-26h22.64l4.57-7.1H417.64a20.09,20.09,0,1,0,0,40.17M512.06,344a13,13,0,0,1-12.51-9.46h33l4.55-7.08H499.55A13,13,0,0,1,512.06,318h22.66l4.53-7.1h-27.7a20.08,20.08,0,0,0,0,40.16h23.83l4.53-7.07H512.06" transform="translate(-228.08 -310.52)" style="fill:url(#linear-gradient-3)"/></svg>