<?xml version="1.0" encoding="utf-8"?>
<!DOCTYPE svg PUBLIC "-//W3C//DTD SVG 1.1//EN" "http://www.w3.org/Graphics/SVG/1.1/DTD/svg11.dtd">
<svg version="1.1" id="Scuderia_Ferrari_Logo" xmlns="http://www.w3.org/2000/svg" width="210" height="280" viewBox="0 0 210 280" xml:space="preserve">
  <title>Scuderia Ferrari Logo</title>
  <desc>For more information see: http://de.wikipedia.org/wiki/Datei:Scuderia_Ferrari_Logo.svg</desc>
  <path id="Black" fill="#231F20" d="M104.996,28.517C42.52,28.517,5.24,50.611,5.24,50.611L6,100.922
    c0,23.095,7.545,121.359,98.995,174.857c91.5-53.498,98.999-151.73,98.999-174.862l0.756-50.307
    C204.75,50.611,167.498,28.517,104.996,28.517"/>
  <path id="Yellow" fill="#FFF200" d="M200.998,54.222c0,0-32.498-20.705-96.002-20.705c-63.496,0-95.997,20.705-95.997,20.705
    l0.997,46.696c0,18.296,3.502,116.305,95,169.494c91.5-53.18,94.997-151.193,94.997-169.494L200.998,54.222"/>
  <path id="Red" fill="#ED1C24" d="M205.002,34.218L104.996,17.22L4.999,34.218l0.25,16.78c0,0,50.252-21.812,99.747-21.807
    c49.499,0,99.75,21.807,99.75,21.807L205.002,34.218"/>
  <polyline id="Green" fill="#009A4E" points="4.999,29.219 4.999,23.222 105.004,4.22 205.002,23.222 205.002,29.223 104.996,10.722 
    4.999,29.219 "/>
  <path id="Horse" fill="#231F20" d="M102.744,41.263c0,0-0.107,1.083-0.364,1.716c-0.232,0.579-0.868,0.979-0.824,1.366
    c0.041,0.392,0.458,0.847,1.086,1.175c0.628,0.323,0.881,0.574,1.517,0.738c0.592,0.141,1.341,0.583,1.562,0.082
    c0.215-0.497-0.111-1.121-0.476-1.712c-0.626-1.024-0.938-1.271-1.865-2.691C103.183,41.636,103.024,41.303,102.744,41.263
     M98.058,152.422c0.059-0.178,1.548,0.751,2.313,1.207c1.617,0.965,2.35,1.539,3.782,2.622c1.123,0.853,1.673,1.298,2.816,2.286
    c1.398,1.201,2.15,2.227,2.527,1.984c0.537-0.654-0.893-2.559-2.16-3.597c-1.234-1.007-2.507-1.836-3.497-2.495
    c-1.264-0.828-1.375-1.029-3.272-2.3c-2.033-1.362-3.791-3.069-3.791-3.069l-1.983-1.562l-3.101-2.619l-3.44-3.178l-2.607-2.896
    c0,0-2.024-2.477-2.345-2.946c-0.321-0.478-1.272-2.008-2.065-3.306c-0.706-1.161-2.067-2.969-2.197-3.124
    c-0.733-0.893-2.416-0.533-4.364-1.685c-2.377-1.398-2.946-2.673-2.946-2.673s-0.093-0.191-0.177-0.292
    c-0.089-0.109-0.271-0.229-0.271-0.229l-1.236-0.875l-0.713-0.469c0,0-0.546-0.446-1.227-0.738
    c-0.676-0.296-2.195-1.179-2.195-1.179l-2.714-1.73c0,0-1.063-0.856-1.418-1.138c-0.353-0.278-1.024-0.66-1.024-0.66
    s-0.426-0.219-0.556-0.223c-0.129-0.009-0.689-0.064-0.689-0.064s-0.521-0.132-1.054,0.492c-0.535,0.624-0.41,0.292,0.458,3.812
    c0.339,1.398,0.307,6.297,0.676,7.782c0.476,1.921,1.812,4.398,1.949,4.69c0.139,0.287,0.232,1.362,0.232,1.362
    s-0.055,0.865,0.039,1.411c0.41,2.527,4.112,0.865,4.927,4.334c0.808,3.426-0.48,6.845-0.48,6.845s-0.801,1.694-1.919,1.968
    c-1.125,0.264-2.864-2.218-4.124-4.234c-1.241-1.977-2.261-4.571-2.586-5.396c-0.328-0.82-0.496-1.002-0.872-1.607
    c-0.556-0.883-1.009-0.729-1.628-2.126c-0.622-1.407-0.071-1.972-0.355-3.197c-0.157-0.678-0.307-0.751-0.517-1.721
    c-0.209-0.97-0.485-4.039-0.485-4.039l-0.392-2.869c0,0-0.141-1.307-0.316-2.122c-0.631-2.864-0.84-5.633-0.84-5.633l-0.116-1.134
    l-0.048-1.175c0,0-0.036-0.569,0.103-1.147c0.141-0.583,0.426-1.065,0.426-1.065s0.574-0.97,0.672-1.207
    c0.098-0.232,1.282-1.603,1.282-1.603s0.61-0.505,1.621-1.134c1.008-0.619,1.921-0.569,1.921-0.569s0.262-0.032,2.051,0.191
    c1.796,0.228,5.48,1.202,6.402,1.448c0.92,0.242,2.01,0.628,2.728,1.02c2.047,1.116,2.668,0.642,1.036-0.628
    c-1.095-0.86-1.402-1.243-2.286-2.053c-0.745-0.679-1.332-1.139-1.887-1.771c-0.551-0.638-2.145-2.982-2.145-2.982l-0.988-1.466
    c0,0-0.538-0.592-0.622-0.638c-0.082-0.045-0.353-0.255-0.353-0.255s-0.653,0.037-1.334-0.1c-0.681-0.127-1.002,0.824-1.002,0.824
    s-1.473,2.75-2.971,4.435c-2.42,2.732-4.16,4.594-5.054,6.042c-1.25,2.017-0.979,4.226-1.624,5.246
    c-0.375,0.601-0.578,0.688-0.783,1.211c-0.628,1.584,1.655,2.454,1.134,4.212c-0.831,2.787-7.363,5.546-8.23,5.082
    c-0.895-0.474-0.162-4.239,0.141-5.464c0.308-1.225,1.221-3.023,1.305-3.119c0.084-0.091,0.303-0.514,0.374-0.874
    c0.07-0.364,0.093-1.175,0.139-1.635c0.043-0.451,0.226-1.17,0.226-1.17s0.032-0.146,0.605-1.407
    c0.579-1.257,2.705-4.185,4.235-6.98c0.993-1.826,1.416-2.933,2.418-4.75c0.929-1.685,2.509-4.239,2.509-4.239
    s0.672-1.307,0.988-1.794c0.319-0.497,0.986-1.443,1.609-2.368c0.631-0.924,0.788-1.621,1.614-2.382
    c0.686-0.633,1.146-0.97,2.038-1.261c1.328-0.437,2.238-0.196,3.586,0.178c1.412,0.387,2.377,1.029,3.294,1.794
    c0.916,0.765,1.601,1.617,1.601,1.617l0.444,0.656l0.273,0.164l0.858,0.546l1.954,1.298c0,0,4.635,3.151,4.888,3.319
    c0.25,0.164,1.077,0.847,1.248,0.906c0.168,0.046,1.405-1.289,3.825-2.964c2.803-1.939,3.8-1.79,4.717-2.295
    c0.92-0.505,1.302-0.929,2.02-1.648c1.086-1.093,1.091-1.667,2.327-3.187c1.241-1.521,2.406-2.368,2.406-2.368
    s0.168-0.168,2.381-2.664c2.215-2.5,3.19-4.39,3.19-4.39l1.218-2.427c0,0,1.758-3.775,2.322-5.269
    c0.563-1.498,0.563-2.003,0.563-2.003s0.084-0.387-0.348-1.147c-0.435-0.761-0.886-0.415-1.721-0.242
    c-1.617,0.342-2.593-0.077-4.219-0.359c-1.494-0.255-2.272-0.692-3.764-0.947c-1.512-0.255-2.397-0.496-3.912-0.351
    c-0.234,0.023-0.699,0.114-0.924,0.191c-0.849,0.287-1.09,0.351-1.726,0.715c-0.735,0.351-1.22,0.464-2.038,0.482
    c-0.563,0.009-0.909,0.027-1.43-0.177c-0.36-0.137-0.56-0.242-0.85-0.497c-0.173-0.159-0.262-0.259-0.396-0.456
    c-0.014-0.164-0.066-0.155,0.089-0.41c0.148-0.264,0.344-0.31,0.344-0.31l0.697-0.173c0,0,0.979-0.26,1.061-0.278
    c0.089-0.023,1.022-0.328,1.432-0.456c0.417-0.132,0.868-0.369,0.868-0.369s0.257-0.396,0.155-0.633
    c-0.116-0.26-0.671-0.278-0.671-0.278s-0.783,0.278-0.872,0.296c-0.084,0.027-1.321,0.419-1.321,0.419s-0.979,0.214-1.735,0.392
    c-0.758,0.173-1.846,0.259-1.846,0.259l-0.326-0.086c0,0-0.378-0.25-0.433-0.5c-0.052-0.232-0.089-0.41-0.132-0.669
    c-0.157-0.961-0.349-1.548-0.13-2.496c0.093-0.396,0.187-0.61,0.36-0.983c0.143-0.314,0.237-0.487,0.423-0.779l0.605-0.974
    l1.129-1.671c0.387-0.396,0.642-0.592,1.127-0.856c0.724-0.405,1.143-0.523,2.038-0.624c0.888-0.091,1.004-0.082,2.259-0.364
    c1.259-0.282,2.149-0.783,2.149-0.783s3.003-1.102,4.836-2.003c1.915-0.938,2.759-1.949,4.749-2.728
    c0.84-0.328,1.325-0.478,2.193-0.697c0.111-0.073,0.164-0.141,0.196-0.264c0.089-0.318-0.405-0.469-0.738-0.432
    c-0.294,0.027-0.979,0.341-1.136,0.004c-0.123-0.269,0.628-0.423,0.628-0.423s0.351-0.164,0.355-0.364
    c0.013-0.296-0.508-0.105-0.738-0.128c-1.161-0.127-1.254-0.341-2.061-0.542c-0.956-0.237-1.473-0.528-2.452-0.565
    c-0.876-0.041-1.694,0.15-2.233,0.282c-0.546,0.132-0.564-0.4-0.351-0.5c1.53-0.715,1.562-0.779,2.639-0.824
    c0.592-0.023,1.418,0.109,1.507,0.15c0.089,0.046,1.268-0.013,1.576-0.318c0.303-0.301-0.975-0.287-1.576-0.524
    c-0.551-0.223-1.4-0.282-1.38-0.651c0.023-0.369,0.437-0.168,0.727-0.237c0.364-0.086,0.583-0.082,0.956-0.137
    c0.676-0.091,0.738-0.146,1.739-0.237c0.998-0.086,2.43,0.328,2.43,0.328s1.496,0.669,2.233,1.015
    c0.737,0.351,1.628,0.524,1.628,0.524s1.037,0.155,1.841-0.351c0.808-0.501,0.354-0.82,0.064-1.275
    c-0.275-0.433-0.625-1.042-0.107-2.217c0.457-1.024,0.689-2.208,0.826-2.318c0.152-0.132,0.797,0.779,1.201,1.161
    c1.463,1.366,3.412,2.049,5.236,4.918c0.143,0.232,0.834-0.137,2.957,0.187c2.125,0.328,3.971,2.604,4.447,3.146
    c0.479,0.542,1.106,0.523,1.106,0.523l1.021,0.132l3.707,0.063c0,0,1.684-0.296,2.653,0.068c0.679,0.25,2.938,1.762,1.908,2.341
    c-0.722,0.4-1.401-0.483-2.049-0.528c-0.771-0.05-1.111,0.091-1.796,0.264c-1.438,0.364-4.524,1.298-3.405,1.676
    c0.092,0.027,0.237,0.059,0.237,0.059l0.564,0.091c0,0,1.355,0.31,2.166,0.633c1.244,0.492,1.818,1.033,2.975,1.703
    c0.642,0.378,0.935,0.756,1.644,0.965c0.656,0.191,1.07-0.004,1.74,0.114c0.879,0.155,1.375,0.328,2.176,0.715
    c1.187,0.578,1.631,1.27,2.705,2.04c0.528,0.387,0.976,0.451,1.375,0.97c0.092,0.118,0.174,0.173,0.211,0.314
    c0.146,0.478-0.782,0.196-1.274,0.119c-0.543-0.091-0.779-0.36-1.275-0.592c-0.738-0.341-1.094-0.733-1.904-0.883
    c-0.592-0.109-0.938-0.018-1.539,0.009c-0.578,0.027-0.896,0.118-1.475,0.127c-0.998,0.014-1.566-0.078-2.541-0.278
    c-1.092-0.228-1.629-0.66-2.732-0.883c-1.219-0.255-3.406-1.307-3.188-0.26c0.105,0.51,1.266,0.934,1.266,0.934
    s0.779,0.433,1.539,0.76c0.762,0.328,1.172,0.824,1.172,0.824l0.523,0.392c0,0,0.537,0.738,1.234,1.562
    c0.694,0.829,1.905,0.806,1.905,0.806s0.738,0,2.328,0.323c1.58,0.328,3.209,1.302,3.209,1.302s1.239,0.842,1.949,1.694
    c0.715,0.842,0.305,1.275,0.219,1.366c-0.086,0.086-0.063,0.041-0.149,0.086c-0.086,0.041-0.979-1.061-0.979-1.061l-0.629-0.546
    c0,0-0.63-0.433-1.435-0.697c-0.803-0.259-1.061-0.082-1.061-0.082s-1.713,0.474-3.188,0.433c-1.478-0.041-2.261-0.628-2.261-0.628
    l-0.934-0.628c0,0-1.406-1.32-1.451-0.697c-0.033,0.424,0.619,0.893,0.619,0.893s0.459,0.46,0.756,0.747
    c0.563,0.555,0.791,0.838,1.442,1.42c0.65,0.587,1.062,0.587,1.062,0.587s0.351,0.082,0.481,0.105
    c0.127,0.022,0.365,0.091,0.365,0.091s0.219,0.082,1.238,0.497c1.02,0.414,2.107,1.302,2.107,1.302s0.104,0.091,0.256,0.109
    c0.154,0.022,0.459,0.168,0.545,0.196c0.088,0.022,0.348,0.022,0.934,0.104c0.584,0.091,0.369,0.46,0.369,0.46l-0.109,0.15
    l-0.477,0.323c0,0-0.629,0.178-1.066,0.196c-0.434,0.022-1.039-0.214-1.039-0.214l-1.323-0.5c0,0-1.324-0.346-1.604-0.392
    c-0.287-0.041-1.479-0.278-1.67-0.323c-0.197-0.046-0.807-0.264-0.957-0.346c-0.154-0.091-0.455-0.155-1.166-0.501
    c-0.719-0.351-1.006-0.76-1.895-1.043c-0.887-0.282-1.43-0.341-2.104,0.132c-1.146,0.792,1.739,0.92,3.184,1.635
    c2.117,1.042,3.313,1.817,3.824,2.946c0.506,1.134,1.021,1.548,1.021,1.548s1.487,0.751,2.166,1.539
    c0.364,0.423,0.424,0.779,0.782,1.207c0.824,0.957,2.41,0.911,2.73,1.726c0.301,0.76-1.285,0.419-2.113,0.341
    c-1.494-0.146-1.851-1.507-3.242-2.063c-0.783-0.31-1.289-0.314-2.094-0.583c-1.457-0.482-2.142-1.116-3.607-1.571
    c-0.883-0.269-2.494-1.443-2.303-0.542c0.049,0.223,0.172,0.387,0.24,0.519c0.063,0.132,0.434,0.605,0.434,0.605
    s0.5,0.656,0.719,0.824c0.215,0.178,1.166,0.893,2.514,1.63c1.348,0.737,2.514,2.149,2.514,2.149s0.4,0.574,0.593,0.979
    c0.198,0.446,0.063,0.583,0.362,1.211c0.308,0.628,0.457,0.747,0.849,1.129c0.983,0.956,2.013,0.765,3.278,1.284
    c0.337,0.132,0.363,0.191,0.736,0.583c0.365,0.392-0.068,0.565-0.068,0.565s-1.396,0.351-2.299,0.278
    c-1.176-0.096-1.692-0.451-2.842-1.016c-1.146-0.564-1.758-1.584-1.867-1.653c-0.108-0.064-0.387-0.369-0.604-0.524
    c-0.219-0.146-0.772-0.269-1.278-0.41c-0.5-0.137-0.802-0.159-1.304-0.3c-0.69-0.196-1.41-0.501-1.733-0.606
    c-0.328-0.109-1.078-0.246-1.617,0.078c-1.092,0.642,1.682,1.083,2.551,1.999c0.441,0.474,0.619,0.801,1.039,1.284
    c0.318,0.374,0.449,0.638,0.846,0.934c0.273,0.201,0.762,0.41,0.762,0.41s0.668,0.31,1.644,0.847
    c0.983,0.542,2.131,2.063,2.131,2.063l0.692,1.061l0.418,0.61l0.105,0.282l0.15,0.346c0,0,0.5,0.651,0.869,0.865
    c0.369,0.218,0.305,0.414,0.305,0.414s-0.045,0.132-0.305,0.283c-0.26,0.155-0.394,0.022-0.76-0.087
    c-0.375-0.104-0.605-0.455-0.931-0.715c-0.328-0.264-0.685-0.915-1.283-1.284c-0.524-0.314-1.213-0.428-1.477-0.519
    c-0.261-0.086-0.91-0.496-1.171-0.605c-0.26-0.109-0.934-0.415-0.934-0.415s-1.311-0.737-2.021-0.933
    c-0.72-0.196-0.265,0.246-0.265,0.246s0.65,1.002,1.267,1.407c0.801,0.533,1.926,1.001,1.563,1.43
    c-0.246,0.287-0.584,0.182-0.953,0.137c-0.601-0.064-1.328-0.788-1.328-0.788s-0.301-0.196-1.646-0.628
    c-1.348-0.438-0.853,0.305-0.547,0.692c0.306,0.392,0.722,0.61,0.722,0.61l0.903,0.41l0.42,0.132c0,0,0.363,0.064,1.584,0.346
    c1.211,0.282,1.886,0.865,1.886,0.865s0.651,0.615,1.559,1.284c0.92,0.669,1.826,0.847,2.322,0.915c0.5,0.059,0.479,0.41,0.479,0.41
    s0.068,0.323,0.045,0.432s-0.133,0.196-0.236,0.196c-0.115,0-0.156,0.041-0.287,0.109c-0.127,0.064-0.651,0.15-0.651,0.15
    s-1.365-0.045-2.427-0.3c-1.065-0.264-1.993-0.998-2.086-1.047c-0.082-0.041-1.084-0.583-1.754-0.802
    c-0.678-0.218-1.737-0.127-1.844-0.086c-0.109,0.045-0.479,0.109-1.111,0.282c-0.627,0.173,0.156,0.41,0.156,0.41l0.455,0.05
    l1.084,0.082c0,0,1.105,0.132,2.063,0.483c0.95,0.341,1.561,1.038,2.188,1.667c0.629,0.629,1.326,1.042,1.326,1.042l0.496,0.323
    l0.264,0.196l0.064,0.173c0,0-0.02,0.091-0.064,0.196c-0.045,0.114-0.195,0.196-0.195,0.196s-0.241-0.041-0.352-0.041
    c-0.109,0-0.814-0.378-1.338-0.61c-0.557-0.246-0.834-0.464-1.416-0.605c-0.506-0.123-1.172-0.173-1.316-0.132
    c-0.153,0.041-1.262,0.196-2.112,0.26c-0.843,0.068-1.591,0.078-2.591-0.045c-1.436-0.173-3.334-1.302-3.575-0.984
    c-0.496,0.651,1.024,0.847,1.75,1.266c1.006,0.578,2.75,1.111,2.75,1.111s1.267,0.283,2.012,0.628
    c1.632,0.756,2.127,1.872,3.435,3.056c0.729,0.665,1.303,0.947,2.276,1.088c0.835,0.118,0.824,0.022,2.148-0.237
    c1.319-0.264,2.131-1.521,2.514-1.066c0.078,0.096,0.048,0.173,0.021,0.305c-0.021,0.127-0.129,0.369-0.129,0.369
    s-0.15,0.218-0.388,0.455c-0.237,0.237-1.151,0.738-1.625,0.934c-0.479,0.196-1.653,0.519-3.125,0.474
    c-1.479-0.041-3.54-1.17-3.54-1.17l-1.494-0.628c0,0-0.691-0.328-1.148-0.501c-1.238-0.459-2.021-0.419-3.301-0.76
    c-0.797-0.209-1.303-0.433-2.019-0.583c-0.719-0.146-0.317,0.132-0.239,0.242c0.342,0.451,0.782,0.596,1.348,0.865
    c0.752,0.364,1.279,0.292,2.063,0.606c0.855,0.355,1.604,0.852,2.076,1.152c0.479,0.305,0.828,0.642,1.285,1.129l1.584,1.343
    c0,0,0.369,0.305,0.41,0.433c0.045,0.132,0.219,0.455,0.131,0.979c-0.086,0.523-0.514,0.155-0.514,0.155l-0.42-0.26l-0.408-0.392
    l-0.674-0.546c0,0-0.566-0.519-1.539-1.02c-0.976-0.496-2.15-0.628-2.15-0.628s-1.043-0.155-1.002,0.173
    c0.047,0.328,0.287,0.351,1.107,0.564c0.824,0.219,1.369,0.628,1.369,0.628s0.848,0.633,1.448,1.325
    c0.615,0.697,0.783,1.366,0.783,1.366s0.306,0.565,1.088,1.325c0.779,0.761,1.197,0.501,1.147,0.865
    c-0.041,0.369-0.393,0.437-0.393,0.437s-0.191-0.022-0.277-0.022c-0.082,0-0.287-0.109-0.502-0.191
    c-0.213-0.091-1.037-0.656-1.037-0.656s-1.284-1.038-1.438-1.152c-0.146-0.105-1.364-1.016-1.364-1.016s-0.711-0.455-1.234-0.719
    c-0.516-0.26-1.211-0.519-1.607-0.651c-0.393-0.127-1.102-0.173-1.102-0.173s-0.875-0.127-1.389-0.323
    c-0.834-0.314-1.8-1.202-1.904-1.243c-0.104-0.045-0.887-0.305-1.037-0.282c-0.15,0.022-0.498,1.475-0.578,2.313
    c-0.355,3.524,0.582,5.86,2.029,9.089c2.108,4.694,7.951,10.527,7.951,10.527s1.467,0.838,2.094,1.33
    c1.75,1.371,4.645,3.306,7.205,5.865c2.192,2.194,5.117,6.094,5.117,6.094s1.68,2.354,2.459,4.016
    c0.961,2.045,1.727,5.15,1.727,5.15s0.068,0.541,0.131,0.649c0.059,0.114,0.201,0.251,0.311,0.256l1.021,0.036
    c0.108,0,1.267-0.092,2.03-0.282c0.765-0.19,2.576-1.016,3.771-1.647c1.193-0.625,2.628-1.84,2.628-1.84s0.27-0.229,1.672-1.785
    c1.401-1.558,2.305-3.894,2.641-4.769c0.328-0.883,0.605-2.563,0.814-5.445c0.215-2.883-0.177-5.934-0.177-5.934
    s-0.528-4.253-0.849-5.696c-0.317-1.448-1.084-3.797-1.084-3.797s-0.536-2.104-0.711-3.429c-0.164-1.33-0.198-3.483-0.198-3.483
    s0-1.321,0.438-3.761c0.432-2.437,1.93-4.886,1.93-4.886s0.414-0.819,2.031-2.75c1.639-1.963,2.168-2.281,3.789-3.452
    c1.282-0.929,2.955-2.409,3.496-2.063c0.602,0.382-0.589,1.134-0.982,1.525c-1.012,0.997-2.91,2.777-4.445,5.446
    c-1.334,2.313-1.83,3.843-2.168,5.35c-0.332,1.512-0.191,3.16-0.15,3.729c0.047,0.564,0.361,0.36,0.361,0.36s3.25-2.609,5.018-4.595
    c1.922-2.14,3.619-5.951,4.289-5.983c0.445-0.023,0.66,0.997,0.555,1.461c-0.428,1.981-0.563,2.231-1.2,3.534
    c-0.746,1.516-1.422,2.19-2.44,3.57c-1.084,1.457-1.603,2.017-2.468,3.943c-1.248,2.773-0.521,4.913-0.521,4.913
    s0.15,1.302,0.738,1.284c0.982-0.032,3.133-2.746,4.535-4.963c1.033-1.635,1.41-3.515,2.094-4.499
    c0.609-0.878,1.156,1.425,0.896,2.782c-0.305,1.607-1.105,3.051-2.854,5.328c-1.713,2.227-1.654,4.344-1.654,4.344
    s-0.186,0.97-0.322,3.073c-0.137,2.104,0.465,5.292,0.465,5.292s0.545,2.664,0.646,4.69c0.1,2.021,0.031,6.644-1.863,10.228
    c-0.752,1.443-2.377,3.438-2.377,3.438s-1.234,1.274-2.264,2.021c-1.023,0.747-3.469,1.898-3.469,1.898s-1.693,0.592-1.939,0.646
    c-0.238,0.063-0.4,0.271-0.4,0.271s0.162,0.328,0.227,0.461c0.06,0.137,0.537,1.303,0.537,1.303s0.511,1.662,0.701,2.979
    c0.191,1.307-0.031,1.606-0.223,2.617c-0.182,0.961-0.605,0.516-0.711,2.409c-0.096,1.671,0.67,2.505,0.529,4.376
    c-0.062,0.818-0.992-1.023-1.437-1.813c-0.954-1.722-0.723-4.34-0.745-4.99c-0.027-0.651-0.072-1.366-0.314-2.204
    c-0.305-1.058-0.732-1.896-1.234-2.541c-0.5-0.646-1.029-1.011-1.211-0.951c-0.172,0.06-0.182,0.405-0.191,0.578
    c-0.008,0.173,0.342,0.792,0.429,0.929c0.077,0.133,0.711,1.284,0.711,1.284s0.276,0.879,0.394,2.597
    c0.108,1.721-0.421,3.828-0.421,3.828s-0.684,2.396-1.411,3.793c-0.806,1.553-2.586,3.666-2.586,3.666s-1.275,1.17-2.23,3.092
    c-0.957,1.922-0.137,2.764-0.492,3c-0.363,0.252-1.119-1.102-1.324-2.021c-0.188-0.847-0.088-1.247,0.25-2.208
    c0.332-0.915,1.102-2.24,1.102-2.24l1.156-1.958c0,0,1.371-2.646,1.803-4.559c0.438-1.917-0.055-4.039-0.055-4.039
    s-0.063-0.701-0.537-0.675c-0.481,0.027-0.828,0.457-1.02,0.961c-0.4,1.053,0.164,0.865-0.438,2.615
    c-0.479,1.379-0.601,1.196-0.853,2.013c-0.295,0.983-0.459,1.983-0.44,2.6c0.022,0.61-0.314,0.354-0.314,0.354
    s-0.578-1.092-0.578-2.444c0-0.738,0.027-1.151,0.115-1.886c0.131-1.18,0.609-2.986,0.609-2.986s0.522-1.781,0.409-3.415
    c-0.114-1.631-0.688-1.937-0.688-1.937s-0.146-0.224-0.782-0.183c-0.629,0.041-0.603,1.175-0.603,1.175s-0.19,1.612-0.44,2.614
    c-0.697,2.777-1.617,4.229-3.267,6.565c-1.483,2.113-3.506,3.967-4.512,4.841c-1.006,0.879-4.104,3.138-4.104,3.138l-3.625,2.413
    c0,0-1.438,1.402-2.104,3.073c-0.668,1.667-0.627,2.974-0.245,4.508c0.383,1.53,0.942,2.25,1.229,2.669
    c0.291,0.423,0.852,1.179,1.032,2.054c0.113,0.547,0.031,0.879,0.064,1.438c0.031,0.481,0.096,0.756,0.086,1.233
    c-0.018,0.771,0.123,1.32-0.309,1.949c-0.328,0.482-1.203,0.893-1.203,0.893s-0.979,0.438-1.566,0.793
    c-6.174,3.729-8.369,6.138-11.844,10.295c-1.111,1.32-0.295,1.242-1.484,2.814c-0.705,0.938-2.358,0.934-2.959,2.058
    c-0.826,1.524,1.881,3.032-1.25,4.381c-4.022,1.739-10.958,0.496-11.093-0.046c-0.378-1.504,1.353-3.215,1.962-3.889
    c2.826-3.088,5.348-3.164,6.268-5.715c0.196-0.547,0.125-1.016,2.363-2.674c1.58-1.17,7.883-5.91,10.633-9.079
    c0.938-1.079,1.758-1.804,2.168-2.979c0.41-1.179-0.41-1.927-0.41-1.927l-1.133-1.844l-2.164-3.871c0,0-0.906-2.054-1.41-3.242
    c-0.498-1.184-1.449-4.394-1.449-4.394s-0.701-2.864-0.814-4.735c-0.215-3.369,0.25-5.328,1.133-8.584
    c1.148-4.248,3.752-6.02,4.791-10.213c0.302-1.216,0.363-3.306-0.25-3.205c-0.592,0.101-0.643,1.758-1.08,2.858
    c-1.676,4.162-3.889,5.988-5.104,10.306c-0.816,2.914-1.143,4.648-1.135,7.678c0,1.729-0.063,1.41,0.383,4.416
    c0.164,1.11,0.447,1.699,0.773,2.777c0.229,0.766,0.848,2.194,0.848,2.194s0.875,1.913,1.166,3.247
    c0.1,0.449,0.209,0.715,0.182,1.175c-0.055,0.797,0.078,0.97-0.305,1.688c-0.479,0.889-0.182,1.416-1.713,1.748
    c-1.342,0.283-4.115-0.604-4.115-0.604s-11.382-3.456-18.647-2.464c-1.441,0.195-2.211,0.72-3.666,0.691
    c-1.309-0.019-1.985-1.047-3.297-0.654c-0.273,0.082-0.357,0.269-0.592,0.428c-1.931,1.343-0.456,3.574-5.526,2.413
    c-3.114-0.715-6.885-2.613-6.229-3.815c0.872-1.589,2.047-1.849,4.506-2.858c2.629-1.075,6.577-0.771,7.352-0.829
    c0.952-0.063,2.322-0.732,4.016-0.762c2.933-0.049,3.458,0.297,3.458,0.297L93,183.47l9.535,0.128c0,0,1.705-0.137,2.393-0.265
    c0.681-0.132,1.224-1.476,1.593-2.117c0.367-0.637-0.01-1.584-0.01-1.584l-0.289-0.442l-0.904-1.466l-1.681-2.827l-1.86-3.707
    c0,0-1.216-2.591-1.869-4.289c-0.645-1.686-1.018-2.637-1.45-4.386c-0.449-1.803-0.717-3.265-0.774-4.702
    C97.61,155.741,97.48,154.116,98.058,152.422"/>
  <path id="Horse_contrast" fill="#FFFFFF" d="M160.004,148.979c1.998-2.582,2.195-4.968,2.313-8.347
    c0.093-2.45-0.838-6.229-0.838-6.229l-0.127-0.273c0,0-0.352-0.455-0.567,0.146c0.034,0.533,0.104,0.961,0.104,0.961l0.118,4.867
    c0,0-0.155,2.451-0.987,4.978c-1.408,4.262-5.142,6.17-5.688,7.695C153.41,155.336,157.6,152.08,160.004,148.979 M138.949,156.854
    c0,0-0.824,0.231-0.838,1.043c-0.021,0.813,0.199,1.521,0.182,2.494c-0.023,1.238-1.17,2.688-0.434,3.15
    c1.271,0.802,2.358-4.854,1.973-5.691C139.445,157.014,139.07,156.844,138.949,156.854 M124.777,196.066
    c0,0-0.232-0.127-0.691,0.045c-0.455,0.17-0.428,0.644-0.428,0.644s-0.088,0.501,0.281,0.56c0.369,0.051,0.979-0.842,0.975-0.95
    C124.906,196.264,124.777,196.066,124.777,196.066 M111.455,205.529c0,0-0.143,0.141-0.02,0.24c0.119,0.092,0.287-0.035,0.287-0.035
    s2.305-1.795,3.666-3.064c1.446-1.354,3.516-3.68,3.516-3.68s0.141-0.182-0.021-0.332c-0.153-0.146-0.559,0.082-0.883,0.236
    c-0.287,0.146-0.455,0.313-0.664,0.492c-0.215,0.178-0.883,0.873-0.883,0.873l-1.785,1.734l-1.11,1.043l-1.088,1.043l-0.462,0.523
    c0,0-0.122,0.199-0.149,0.25c-0.031,0.051-0.154,0.209-0.154,0.209s-0.16,0.16-0.16,0.201s-0.055,0.096-0.059,0.146
    C111.486,205.461,111.455,205.529,111.455,205.529 M107.469,208.143c0,0-0.254-0.205-0.641,0c-0.393,0.2-0.811,0.742-0.844,0.803
    c-0.032,0.059-0.252,0.354-0.104,0.604c0.146,0.25,0.645-0.118,0.715-0.132c0.072-0.01,0.723-0.516,0.723-0.516
    S107.695,208.666,107.469,208.143 M99.848,215.865c0,0-0.321-0.614-0.749-0.359c-0.435,0.25-0.663,0.337-1.054,0.874
    c-0.066,0.101-0.489,0.646-0.569,0.783c-0.075,0.142-0.489,0.938,0.36,0.987c1.473,0.097,0.512-0.855,1.016-1.221
    c0.41-0.285,1.175-0.214,1.184-0.515C100.048,216.12,99.848,215.865,99.848,215.865 M73.747,185.043c0,0-0.888,0.21-0.952,0.523
    c-0.066,0.313,0.517,0.619,0.61,0.633c0.098,0.019,0.303,0.246,0.886-0.15s0.56-0.736,0.56-0.736S75.195,184.915,73.747,185.043
     M88.106,184.574c0,0-0.009-0.323-0.637-0.287c-0.631,0.036-0.77,0.154-0.783,0.246c-0.019,0.1,0.027,0.26,0.596,0.305
    C87.856,184.884,88.088,184.834,88.106,184.574 M101.671,184.971c-1.139-0.015-0.774,0.022-1.478,0.059
    c-1.277,0.068-1.974,0.015-3.231-0.067c-1.764-0.112-4.497-0.56-4.497-0.56s-0.344-0.073-0.48,0.141
    c-0.129,0.229,0.333,0.697,0.747,0.829c2.233,0.696,2.35,0.569,3.879,0.597c0.849,0.014,1.325-0.072,2.167-0.128
    c1.068-0.073,1.571,0.091,2.732-0.219C101.815,185.544,102.111,184.975,101.671,184.971 M109.324,182.693c0,0-0.23-0.26-0.699-0.032
    c-0.473,0.231-0.756,0.747-0.756,0.747s-0.219,0.342,0.246,0.287c0.467-0.055,0.871-0.256,0.99-0.328
    C109.223,183.305,109.561,182.98,109.324,182.693 M102.664,90.927c0,0,3.238-3.033,5.543-7.031c1.375-2.381,1.973-7.932,0.793-6.543
    c-0.535,0.624-1.174,3.511-2.195,5.637c-1.454,3.032-4.563,7.331-4.563,7.331S101.573,91.756,102.664,90.927 M89.762,98.609
    c0,0-0.344,0.26-0.191,0.697c0.16,0.437,0.827,0.104,0.827,0.104s1.482-0.56,3.048-0.624c1.573-0.064,3.746,0.405,3.746,0.405
    s1.036,0.287,1.211,0.351c0.173,0.063,0.738,0.341,0.827,0.374c0.093,0.032,0.624,0.3,0.926,0.027
    c0.31-0.273-1.883-2.258-4.116-2.559c-3.715-0.506-6.163,1.088-6.163,1.088L89.762,98.609 M74.437,111.709
    c0.269,0.218,1.514-2.145,2.555-3.638c0.76-1.102,2.149-2.937,2.149-2.937s0.619-0.843-0.437-0.369
    c-0.435,0.191-1.614,1.088-2.445,2.741C75.55,108.909,74.17,111.481,74.437,111.709 M65.847,101.423c0,0-0.266,0.906,0.809,2.058
    c1.077,1.147,1.354,2.099,2.042,1.412c0.191-0.182-0.671-1.739-1.111-2.167c-0.442-0.423-0.765-0.783-0.765-0.783l-0.275-0.228
    l-0.362-0.196l-0.2-0.082C65.983,101.437,65.922,101.382,65.847,101.423 M62.368,92.635c0,0-1.161,0.219-1.451,0.779
    c-0.287,0.564,1.339,0.223,1.339,0.223s1.082,0.063,1.106-0.351C63.39,92.872,63.222,92.821,62.368,92.635 M43.89,123.257
    c-0.587-0.178-0.69,0.993-0.765,1.366c-0.073,0.378,0.262,1.138,0.396,1.129c0.141-0.004,0.613-0.742,0.64-1.106
    C44.188,124.281,44.418,123.416,43.89,123.257 M63.078,146.061c0,0-1.059-0.838-1.222-0.504c-0.157,0.326,0.876,1.808,0.876,1.808
    s0.312,0.481,0.801,0.259c0.485-0.223,0.31-0.756,0.31-0.756S63.516,146.175,63.078,146.061 M55.071,121.39
    c0,0-0.269-0.064-0.373,0.259c-0.098,0.323-0.086,0.861-0.157,1.498c-0.062,0.505,0.13,1.844,0.13,1.844s0.103,1.057,0.312,1.703
    c0.23,0.688,0.845,1.667,0.845,1.667s0.232,0.51,0.512,0.487c0.28-0.027,0.216-0.364,0.216-0.364s-0.888-3.529-0.92-3.889
    c-0.107-1.17-0.098-2.604-0.098-2.604l-0.009-0.219C55.529,121.772,55.52,121.404,55.071,121.39 M56.462,110.625
    c0,0-0.494-0.1-0.942,0.847c-0.453,0.952-0.36,1.334-0.321,1.379c0.036,0.046,0.4,0.032,0.974-0.847
    c0.567-0.875,0.442-1.202,0.442-1.202S56.583,110.625,56.462,110.625 M69.917,120.384c0,0,0.597,0.879-0.54,0.678
    c-1.134-0.205-3.518-2.081-4.483-2.586c-0.958-0.505-2.532-0.674-1.869-1.257c0.116-0.104,0.146-0.2,0.342-0.209
    c0.196-0.009,0.842,0.25,0.885,0.269c0.037,0.022,1.714,0.71,1.776,0.733c0.062,0.027,0.998,0.428,1.669,0.82
    c0.672,0.396,1.758,1.156,1.758,1.156L69.917,120.384 M101.298,147.395c0.308,0.979-3.572-2.049-5.651-3.65
    c-5.512-4.239-12.258-12.937-11.416-13.702c0.701-0.637,3.465,3.347,7.518,7.732C96.075,142.454,101.116,146.816,101.298,147.395
     M117.496,143.236c-1.197,1.285-1.625,2.929-0.934,4.158c0.684,1.192,0.893-1.744,1.647-2.619c0.644-0.746,1.039-0.633,2.113-1.389
    C122.146,142.1,119.021,141.604,117.496,143.236 M110.598,115.794c-0.818-0.137-0.791,1.115-0.674,2.012
    c0.547,3.989,2.336,7.063,4.727,9.963c1.457,1.757,5.447,4.899,5.916,4.398c0.168-0.182-3.803-3.242-6.325-7.181
    c-1.789-2.792-2.75-5.164-2.97-7.468C111.244,117.232,111.313,115.908,110.598,115.794 M95.158,56.648
    c-1.801,0.979-4.92,1.835-4.92,1.835s-0.144,0.305,0.257,0.273c2.671-0.209,3.688-0.551,5.116-1.175
    c1.42-0.619,2.461-2.327,2.461-2.327s0.574-1.052-0.503-0.182C97.241,55.337,96.141,56.107,95.158,56.648 M116.855,49.791
    c0,0-0.611-0.137-1.021,0.119c-0.408,0.259-0.291,0.469-0.291,0.469s0.629,0.492,1.084,0.565c0.455,0.068,1.43,0.492,1.385,0.164
    c-0.037-0.332-0.584-0.938-0.766-1.102C117.055,49.841,116.855,49.791,116.855,49.791 M106.641,68.529
    c0.107,0.214,1.932-0.282,2.629-0.674c0.556-0.31,0.765-1.343,0.765-1.343s0.155-1.006-0.082-0.62
    C108.908,67.591,106.539,68.31,106.641,68.529 M106.582,63.848c0.736-1.407-2.024,1.471-3.429,2.218
    c-0.858,0.455-2.251,1.052-2.251,1.052s-0.369,0.46,0.146,0.423c0.517-0.041,1.831,0.41,2.885-0.419
    c0.248-0.191,1.361-1.803,1.361-1.803S106.227,64.526,106.582,63.848 M106.156,69.867c0.053,0.232,3.154,0.15,3.928-0.073
    c0.605-0.177,0.934-1.261,0.934-1.261s0.373-0.942,0.06-0.619C109.678,69.339,106.105,69.631,106.156,69.867 M56.512,98.176
    c0,0-0.471-0.168-1.054,0.71c-0.578,0.87-3.178,4.813-2.714,5.4c0.546,0.688,2.798-3.529,3.483-4.321
    c0.69-0.788,0.415-1.598,0.415-1.598S56.633,98.19,56.512,98.176 M113.176,169.452c-0.273,1.312,0.064,3.987,0.51,4.517
    c1.103,1.33,0.428-2.076,0.582-3.27c0.133-1.12,0.279-1.502,0.82-2.695C116.072,165.863,113.758,166.656,113.176,169.452
     M103.691,55.232c0,0-0.858,0.019-1.53,0.387c-0.671,0.374-0.849,0.888-0.849,0.888s-0.134,0.374-0.041,0.583
    c0.196,0.456,1.118-0.232,1.771-0.004c0.528,0.187,0.779,0.337,1.175,0.819c0.351,0.424,0.97,1.025,1.357,0.683
    c0.387-0.341,0.248-1.193,0.248-1.193s-0.458-1.394-1.054-1.794C104.171,55.205,103.691,55.232,103.691,55.232 M89.441,65.054
    c0,0-0.476,0.078-0.364,0.656c0.114,0.579,0.425,0.487,0.425,0.487s0.993-0.423,0.927-1.02
    C90.37,64.572,89.441,65.054,89.441,65.054 M82.483,61.935c0,0-0.521,0.019-0.886,0.665c-0.366,0.646-0.578,1.312-0.578,1.312
    s-0.175,0.851,0.132,1.115c0.308,0.269,0.638-0.551,1.077-0.86c0.266-0.191,0.428-0.282,0.699-0.469
    c0.374-0.259,0.979,0.073,0.934-0.683C83.813,62.259,83.007,61.899,82.483,61.935 M104.963,53.839c0,0-1.184-0.168-1.138,0.287
    c0.039,0.419,0.644,0.168,1.031,0.342c0.378,0.164,0.619,0.232,0.921,0.514c0.222,0.196,0.195,0.583,0.468,0.587
    c0.377,0.005,0.297-0.146,0.297-0.146s-0.338-1.02-0.783-1.316C105.319,53.821,104.963,53.839,104.963,53.839 M118.176,58.611
    c-0.174,0.642-0.277,0.87-0.277,0.87s-0.334,1.307,0.992,0.824c1.32-0.492,0.644-0.282,1.588-0.742
    c0.943-0.46,0.912-0.209,1.604-0.178c0.235,0.009,0.383,0.023,0.737-0.05c0.296-0.059,0.173-0.418-0.491-0.596
    c-0.716-0.191-1.604-0.141-2.623-0.155C119.113,58.579,118.348,57.974,118.176,58.611 M118.758,53.766c0,0-0.609-0.132-1.02,0.123
    c-0.414,0.26-0.291,0.464-0.291,0.464s0.633,0.497,1.084,0.565c0.455,0.077,1.43,0.496,1.393,0.164
    c-0.045-0.332-0.592-0.933-0.773-1.102C118.967,53.821,118.758,53.766,118.758,53.766 M121.09,62.855c0,0-0.652-0.127-1.094,0.123
    c-0.445,0.246-0.314,0.437-0.314,0.437s0.68,0.464,1.162,0.533c0.482,0.064,1.529,0.46,1.488,0.146
    c-0.041-0.31-0.623-0.879-0.824-1.039C121.309,62.9,121.09,62.855,121.09,62.855 M121.281,66.156c0,0-0.688-0.15-1.156,0.132
    c-0.465,0.277-0.324,0.505-0.324,0.505s0.715,0.533,1.225,0.615c0.517,0.077,1.613,0.528,1.566,0.168
    c-0.045-0.355-0.654-1.011-0.865-1.193C121.518,66.207,121.281,66.156,121.281,66.156 M121.596,69.371c0,0-0.748-0.168-1.252,0.146
    c-0.506,0.319-0.355,0.569-0.355,0.569s0.777,0.605,1.328,0.692c0.558,0.086,1.75,0.605,1.703,0.205
    c-0.049-0.405-0.719-1.147-0.946-1.352C121.846,69.43,121.596,69.371,121.596,69.371 M121.518,73.346c0,0-0.742-0.168-1.252,0.15
    c-0.506,0.314-0.352,0.569-0.352,0.569s0.775,0.601,1.33,0.688c0.557,0.091,1.758,0.605,1.703,0.2
    c-0.051-0.405-0.719-1.143-0.947-1.348C121.773,73.405,121.518,73.346,121.518,73.346 M120.977,81.092c0,0-0.748-0.168-1.254,0.15
    c-0.504,0.314-0.354,0.569-0.354,0.569s0.773,0.606,1.328,0.692c0.557,0.091,1.758,0.601,1.703,0.2
    c-0.049-0.405-0.719-1.147-0.947-1.353C121.227,81.151,120.977,81.092,120.977,81.092 M121.48,77.212c0,0-0.859-0.191-1.447,0.173
    c-0.582,0.364-0.406,0.656-0.406,0.656s0.898,0.701,1.535,0.801c0.643,0.1,2.031,0.697,1.967,0.232
    c-0.055-0.469-0.828-1.325-1.092-1.558C121.773,77.28,121.48,77.212,121.48,77.212 M120.607,84.589c0,0-0.611-0.141-1.029,0.123
    c-0.42,0.259-0.291,0.469-0.291,0.469s0.637,0.497,1.098,0.569c0.455,0.073,1.438,0.501,1.396,0.164
    c-0.041-0.333-0.592-0.943-0.777-1.111C120.816,84.634,120.607,84.589,120.607,84.589 M120.029,87.949c0,0-0.506-0.114-0.852,0.105
    c-0.347,0.214-0.246,0.387-0.246,0.387s0.532,0.415,0.909,0.474c0.38,0.059,1.197,0.41,1.162,0.137
    c-0.032-0.278-0.487-0.783-0.644-0.924C120.201,87.99,120.029,87.949,120.029,87.949 M119.314,91.009c0,0-0.461-0.105-0.775,0.091
    c-0.309,0.191-0.219,0.351-0.219,0.351s0.475,0.374,0.82,0.424c0.342,0.059,1.08,0.373,1.053,0.127
    c-0.033-0.25-0.443-0.71-0.584-0.829C119.469,91.045,119.314,91.009,119.314,91.009 M118.586,93.518c0,0-0.465-0.104-0.775,0.086
    c-0.309,0.196-0.219,0.355-0.219,0.355s0.479,0.369,0.82,0.423c0.346,0.059,1.08,0.374,1.047,0.123
    c-0.031-0.246-0.441-0.706-0.582-0.829C118.74,93.555,118.586,93.518,118.586,93.518 M117.711,96.428c0,0-0.373-0.086-0.619,0.073
    c-0.256,0.16-0.178,0.287-0.178,0.287s0.387,0.296,0.66,0.346c0.277,0.041,0.875,0.296,0.848,0.095
    c-0.027-0.2-0.359-0.569-0.475-0.669C117.838,96.459,117.711,96.428,117.711,96.428 M116.664,99.155c0,0-0.318-0.068-0.533,0.064
    c-0.219,0.132-0.154,0.246-0.154,0.246s0.332,0.255,0.568,0.292c0.236,0.041,0.752,0.26,0.734,0.086
    c-0.023-0.168-0.314-0.492-0.406-0.578C116.773,99.178,116.664,99.155,116.664,99.155 M115.584,101.742c0,0-0.322-0.068-0.533,0.068
    c-0.223,0.132-0.154,0.241-0.154,0.241s0.338,0.26,0.574,0.296c0.236,0.041,0.746,0.264,0.729,0.087
    c-0.027-0.173-0.312-0.492-0.41-0.579S115.584,101.742,115.584,101.742 M45.554,114.915c0,0-0.54,1.047-0.275,1.621
    c0.267,0.574,0.995-0.916,0.995-0.916s0.753-1.489,0.446-1.762C46.408,113.581,46.23,114.355,45.554,114.915"/>
  <path id="Scuderia" fill="#231F20" d="M86.615,207.082c0,0-0.405-0.523-0.788-0.143c-0.383,0.384-0.881,0.994-1.767,0.935
    c-0.89-0.067-1.272-0.205-1.773-0.419c-0.494-0.219-1.188-0.546-1.188-0.546s-1.808-0.697-3.342-0.733
    c-1.53-0.041-4.034,0.598-5.246,1.912c-1.213,1.307-1.521,2.669-1.521,2.669s-0.405,2.392,0.29,3.483
    c0.694,1.102,1.45,2.281,3.133,3.314c1.689,1.033,2.424,1.416,2.424,1.416l2.93,1.348l2.708,1.021c0,0,3.914,1.17,4.389,4.13
    c0.474,2.961-1.302,6.789-6.705,7.141c-5.316,0.347-7.905-2.235-8.733-3.889c-0.827-1.662-0.351-3.064-0.351-3.064l0.223-0.455
    l0.209-0.104c0,0,0.827,0.56,1.637,0.454c0.808-0.104,2.295-1.079,1.987-2.668c-0.312-1.594-1.739-1.944-2.425-1.886
    c-0.681,0.061-3.727,0.848-3.786,5.277c-0.062,4.427,3.973,6.785,3.973,6.785s2.857,1.779,6.083,1.639
    c3.228-0.146,5.899-1.43,5.899-1.43s4.779-2.377,4.906-7.572c0.121-5.19-3.167-7.018-3.167-7.018s-1.179-0.824-2.256-1.324
    c-1.077-0.492-3.661-1.739-3.661-1.739l-2.629-1.198l-1.594-0.888l-0.893-0.601c0,0-2.128-1.677-0.993-3.498
    c1.139-1.82,4.431-1.139,4.431-1.139s2.545,0.537,4.531,1.967c1.988,1.426,3.149,3.143,3.149,3.143l0.824,1.349l0.102,0.187
    l0.706-0.246c0,0-1.098-3.063-1.307-4.349C86.82,209.063,86.615,207.082,86.615,207.082"/>
  <path id="Ferrari" fill="#231F20" d="M118.121,224.6c0,0,0.711,0.787,1.656,0.787c0.957,0,2.313-0.664,2.295-2.382
    c-0.018-1.716-1.756-2.176-1.756-2.176s-2.629-0.619-3.908,2.054c-1.283,2.668-0.582,4.985-0.582,4.985s0.602,3.603,4.408,5.733
    c3.806,2.129,7.887,0.56,7.887,0.56s3.059-1.017,5.709-3.998c2.65-2.978,3.912-6.517,3.912-6.517l0.928-2.316l1.117,0.021
    c0,0,1.557,0.146,2.648-0.746c1.104-0.894,1.785-2.112,1.785-2.112l0.143-0.369l-0.707-0.328c0,0-0.801,1.052-1.922,1.157
    c-1.115,0.1-2.275-0.087-2.275-0.087l1.074-2.878c0,0,1.242-2.504,1.598-3.084c0.352-0.577,1.799-2.439,1.799-2.439
    s2.979-0.018,5.855-0.619c2.879-0.601,4.654-1.324,4.654-1.324L158,207.05l0.869-0.474l-0.268-0.706c0,0-3.207,1.139-7.951,1.681
    c-4.734,0.537-7.713-0.041-7.713-0.041l-5.383-0.833c0,0-1.636-0.265-2.896-0.286c-1.26-0.02-3.834,0.45-3.834,0.45
    s-2.559,0.582-3.715,1.452c-1.166,0.87-3.916,2.9-2.65,6.002c1.258,3.105,6.412,1.447,7.141-0.852
    c-0.026,0.021,0.287-0.742,0.287-0.742l0.086-0.415l-0.44-0.168l-0.517,0.601c0,0-1.922,1.617-3.414,0.578
    c-1.483-1.033-0.475-2.477-0.328-2.646c0.142-0.162,0.947-1.137,2.873-1.569s4.822,0.269,4.822,0.269l3.146,0.578
    c0,0,1.738,0.332,1.816,0.332c0.086,0,0.646,0.082,0.646,0.082l-1.099,1.221c0,0-1.594,1.53-2.713,3.748
    c-1.115,2.213-1.631,3.369-1.631,3.369l-0.109,0.168c0,0-1.401,0.164-2.289,0.701c-0.893,0.538-1.471,1.366-1.471,1.366
    l-0.416,0.747l0.558,0.474c0,0,0.643-0.725,1.43-0.929c0.787-0.21,1.386,0.104,1.386,0.104s-1.14,2.811-1.677,3.825
    s-1.448,2.878-2.731,4.263c-1.279,1.384-2.213,2.59-5.15,3.004c-2.938,0.41-5.01-1.475-5.773-2.403
    c-0.77-0.929-1.221-2.34-1.262-3.369C117.584,225.592,118.121,224.6,118.121,224.6"/>
</svg>