<?xml version="1.0" encoding="UTF-8" standalone="no"?>
<svg
   data-name="Layer 1"
   viewBox="0.02 -16.375192 82.1688 5.7614784"
   width="300"
   height="25"
   version="1.1"
   id="svg6"
   sodipodi:docname="williams-racing-1.svg"
   inkscape:version="1.2.1 (9c6d41e410, 2022-07-14)"
   xmlns:inkscape="http://www.inkscape.org/namespaces/inkscape"
   xmlns:sodipodi="http://sodipodi.sourceforge.net/DTD/sodipodi-0.dtd"
   xmlns="http://www.w3.org/2000/svg"
   xmlns:svg="http://www.w3.org/2000/svg">
  <defs
     id="defs10" />
  <sodipodi:namedview
     id="namedview8"
     pagecolor="#505050"
     bordercolor="#eeeeee"
     borderopacity="1"
     inkscape:showpageshadow="0"
     inkscape:pageopacity="0"
     inkscape:pagecheckerboard="true"
     inkscape:deskcolor="#505050"
     showgrid="false"
     inkscape:zoom="5.4758349"
     inkscape:cx="153.85782"
     inkscape:cy="7.1222016"
     inkscape:window-width="1920"
     inkscape:window-height="1017"
     inkscape:window-x="-8"
     inkscape:window-y="-8"
     inkscape:window-maximized="1"
     inkscape:current-layer="svg6" />
  <g
     id="g2301"
     transform="translate(0,-16.533528)">
    <path
       d="m 23.581192,5.8462835 h 1.311092 V 0.07004733 H 23.581192 Z M 19.767979,0.07004733 H 18.458084 V 5.8462835 h 3.806017 V 4.8017353 H 19.767979 Z M 36.142197,3.1784815 33.344715,0.00401262 H 33.16942 V 5.8510863 h 1.264273 V 3.7235674 a 8.6085236,8.6085236 0 0 0 -0.04203,-0.9797145 c 0,0 0.222117,0.340978 0.446633,0.6111208 l 1.217446,1.4995881 h 0.184901 l 1.211431,-1.4995881 c 0.218517,-0.2689406 0.440632,-0.6099204 0.440632,-0.6099204 a 8.6085236,8.6085236 0 0 0 -0.04202,0.9797147 v 2.1263183 h 1.264266 V 0.00401262 H 38.939656 Z M 43.473244,2.3824627 43.175475,2.2551963 C 42.787674,2.0907091 42.443099,1.9058111 42.443099,1.5480239 c 0,-0.2893512 0.164479,-0.4802522 0.513876,-0.4802522 a 0.90767703,0.90767703 0 0 1 0.790007,0.5042649 L 44.729096,0.98732939 C 44.314894,0.26695072 43.648533,-0.02 42.928152,-0.02 c -1.06376,0 -1.727709,0.69756669 -1.746911,1.5908363 -0.02041,0.9929214 0.686743,1.4407565 1.546401,1.8069491 l 0.297753,0.1272676 c 0.545095,0.240127 0.800834,0.41902 0.791221,0.7804102 -0.01087,0.3409787 -0.240127,0.5871081 -0.731189,0.5871081 -0.58711,0 -0.932882,-0.3229692 -1.140579,-0.7648029 l -1.037363,0.5931123 c 0.280954,0.6507421 1.058966,1.2486565 2.169554,1.2486565 1.110572,0 2.008649,-0.5823055 2.047076,-1.6532696 C 45.156521,3.3729832 44.538188,2.800283 43.47445,2.375259 M 3.8139937,0.02202209 1.6864772,4.6324451 2.1307091,5.8462835 H 2.3384183 L 3.6218924,2.9539632 A 4.3955101,4.3955101 0 0 0 3.9064437,2.2263802 4.7941204,4.7941204 0 0 0 4.1861897,2.946758 L 5.4768673,5.8462835 H 5.6845774 L 6.1276102,4.6324451 4.0012934,0.02202209 Z M 1.3695088,0.07004733 H 0.02 L 1.549604,4.2590495 2.2699825,2.6886238 Z M 5.5332969,2.6742171 6.2632821,4.2590495 7.7976878,0.07004733 H 6.4349717 Z m 4.014912,3.1720664 H 10.858097 V 0.07004733 H 9.5482089 Z M 14.604065,0.07004733 H 13.294187 V 5.8462835 h 3.805995 V 4.8017353 H 14.604065 Z M 29.056061,3.9096651 h -0.653135 l 0.49705,-1.2750698 c 0.09365,-0.2401262 0.156085,-0.4430327 0.156085,-0.4430327 0,0 0.06123,0.2053074 0.154886,0.4430327 L 29.708,3.9036619 Z m 0.09365,-3.89964933 H 28.962415 L 26.383451,5.8378783 h 1.258266 l 0.375795,-0.9244845 h 2.075901 l 0.375786,0.9244845 h 1.259459 z"
       fill="#12100b"
       id="path2"
       style="fill:#081e3a;fill-opacity:1;stroke-width:0.120063" />
    <path
       fill="#00a0dd"
       d="m 66.267227,0.07004733 h 1.311071 V 5.8462835 H 66.267227 Z M 63.684665,3.913268 63.651045,3.964895 c -0.3698,0.5642966 -0.790023,0.8056225 -1.405946,0.8056225 -0.9605,0 -1.653257,-0.7587991 -1.653257,-1.8009468 0,-1.0421469 0.679547,-1.7865383 1.653257,-1.7865383 a 1.4899826,1.4899826 0 0 1 1.320699,0.7107725 l 0.03361,0.055231 0.989323,-0.7023691 -0.03122,-0.049227 c -0.51025,-0.79962019 -1.264253,-1.18742403 -2.312408,-1.18742403 -1.694091,0 -2.971556,1.27146833 -2.971556,2.95595383 0,1.684485 1.277465,2.9643584 2.971556,2.9643584 1.044549,0 1.878986,-0.4418322 2.414469,-1.2762711 l 0.03122,-0.049226 z M 82.183981,2.7630628 v -0.05643 h -2.761456 v 1.134598 h 1.396345 c -0.147673,0.4802516 -0.649548,0.936492 -1.485187,0.936492 -0.973706,0 -1.680887,-0.761202 -1.680887,-1.811753 0,-1.0505523 0.686766,-1.7865392 1.671294,-1.7865392 a 1.4671721,1.4671721 0 0 1 1.33029,0.7443902 l 0.03361,0.055231 1.014536,-0.7203786 -0.03121,-0.049227 C 81.149038,0.40142151 80.380641,0.00881514 79.32409,0.00881514 c -1.704908,0 -2.989579,1.27146866 -2.989579,2.95595236 0,1.7181044 1.264256,2.96436 3.001577,2.96436 0.888478,0 1.619649,-0.273745 2.113108,-0.7936188 0.529473,-0.5546907 0.782819,-1.3747216 0.73358,-2.3736463 M 73.4638,0.07484985 V 2.5061284 c 0,0.2533336 -0.0132,0.4922579 0.0097,0.7143746 A 5.1627127,5.1627127 0 0 0 72.973988,2.7198402 L 70.120046,0.04123219 70.10324,0.02442334 H 69.902734 V 5.8522867 H 71.11296 V 3.4210086 a 7.036898,7.036898 0 0 0 -0.01087,-0.7203791 5.342807,5.342807 0 0 0 0.499466,0.5078679 l 2.85749,2.6774063 0.01681,0.01681 h 0.200502 V 0.07484985 Z M 50.709438,1.9934586 c 0,0.5390827 -0.279742,0.7888149 -0.88006,0.7888149 H 48.988941 V 1.2130483 h 0.840437 c 0.600318,0 0.88006,0.2485303 0.88006,0.7804103 m 0.240126,1.6808837 c 0.69637,-0.3001579 1.080571,-0.8956717 1.080571,-1.6808837 0,-1.20063136 -0.809222,-1.92101001 -2.16114,-1.92101001 H 47.707861 V 5.8486851 h 1.28468 V 3.8844532 h 0.645929 l 1.149024,1.9642319 h 1.471962 z m 4.892577,0.2353228 h -0.651943 l 0.495854,-1.2750698 c 0.09486,-0.2401262 0.156089,-0.4430327 0.156089,-0.4430327 0,0 0.06243,0.2053074 0.156071,0.4430327 l 0.497062,1.2690666 z m 0.09365,-3.89964933 H 55.74849 L 53.169532,5.8378783 h 1.25946 l 0.375807,-0.9220842 h 2.074685 l 0.376995,0.9244862 h 1.258266 z"
       id="path4"
       style="fill:#009cd9;fill-opacity:1;stroke-width:0.120063" />
  </g>
</svg>
